<?xml version="1.0" encoding="UTF-8"?>
<svg id="Layer_2" data-name="Layer 2" xmlns="http://www.w3.org/2000/svg" viewBox="0 0 2066.95 245.38">
  <defs>
    <style>
      .cls-1 {
        fill: #f06;
      }
    </style>
  </defs>
  <g id="Layer_1-2" data-name="Layer 1">
    <g>
      <g>
        <g>
          <path class="cls-1" d="m2037.04,245.38h-403.57l29.91-179.75h403.57l-29.91,179.75Zm-385.77-15.08h372.99l24.9-149.59h-372.99l-24.9,149.59Z"/>
          <g>
            <path class="cls-1" d="m1738.69,209.43h-43.6l18.95-107.85h14.48l-16.64,94.75h29.12l-2.31,13.1Z"/>
            <path class="cls-1" d="m1807.11,184.01h-23.11l-9.09,25.42h-14.33l40.37-107.85h17.87l2.77,107.85h-14.33l-.15-25.42Zm0-12.17l-.31-52.08-18.49,52.08h18.8Z"/>
            <path class="cls-1" d="m1901.56,153.35c8.63,1.39,11.09,9.24,9.71,17.1l-3.24,17.72c-2.16,13.1-11.71,21.26-29.58,21.26h-26.96l18.95-107.85h27.27c14.79,0,23.73,8.16,21.26,21.26l-2.31,13.56c-1.39,8.78-5.85,15.87-15.1,16.95Zm-13.87,6.47h-13.1l-6.32,36.98h13.1c7.24,0,11.4-3.54,12.63-11.09l2.93-16.18c1.08-6.62-2.31-9.71-9.24-9.71Zm-10.94-12.33h12.63c6.78,0,11.25-3.08,12.48-9.7l2.16-12.48c1.39-7.55-1.39-11.09-8.78-11.09h-12.48l-6.01,33.28Z"/>
            <path class="cls-1" d="m1987.6,139.63l2.77-14.64c1.39-8.63-2-12.02-9.55-12.02s-12.17,3.39-13.56,12.02l-1.39,7.4c-1.08,6.47.46,9.24,6.01,12.79l12.79,7.7c8.32,5.24,13.56,10.02,11.71,20.49l-2.77,14.79c-2.77,16.18-11.71,22.49-29.58,22.49h-.31c-14.79,0-24.81-6.16-21.88-22.49l3.24-18.33h14.33l-2.93,15.87c-1.39,8.47,1.85,12.33,9.55,12.33s12.48-3.85,13.87-12.33l1.54-8.47c1.23-6.78-.62-9.71-6.47-13.25l-12.48-7.7c-8.17-5.08-12.94-11.25-11.4-20.18l2.31-13.56c2.77-15.56,13.25-22.19,29.58-22.19h.31c13.25,0,24.5,6.62,21.57,22.19l-2.93,17.1h-14.33Z"/>
          </g>
        </g>
        <polygon class="cls-1" points="244.39 3.5 181.5 3.5 90.75 183.42 61.5 241.41 118.25 241.41 244.39 3.5"/>
        <polygon class="cls-1" points="1014.33 5.46 892.07 245.38 954.95 244.36 1042.77 63 1071.07 4.54 1014.33 5.46"/>
      </g>
      <g>
        <path d="m403.3,241.41h-170.46L274.71,3.5h168.71l-8.41,48.53h-111.07l-7.88,44.15h97.23l-8.41,48.35h-97.23l-8.58,48.53h112.82l-8.58,48.35Z"/>
        <path d="m489.24,158.72c9.81,21.02,29.78,34.16,52.91,34.16,18.75,0,35.39-7.53,37.32-18.4,2.8-15.24-16.64-19.8-43.62-28.38-40.29-12.79-76.56-26.45-67.97-75.16C475.58,27.15,523.05,0,566.68,0s69.03,20.15,84.62,50.81l-48.18,31.36c-7.88-15.07-22.25-31.53-45.37-31.53-16.64,0-29.61,7.88-31.54,19.27-2.8,15.77,14.89,18.57,39.07,27.15,50.63,17.87,80.41,32.06,72.7,75.51-8.76,49.58-61.14,72.35-106.52,72.35-42.75,0-79.36-18.92-91.1-54.66l48.88-31.54Z"/>
        <path d="m669.31,122.28C681.58,52.21,745.7,0,816.3,0c42.22,0,80.41,23.12,95.65,59.39l-50.1,32.76c-10.69-22.07-25.75-38.19-55.01-38.19-40.12,0-71.48,28.73-78.48,68.33-7.01,39.59,14.19,68.67,54.31,68.67,26.45,0,48.7-12.96,69.55-37.84l38.37,32.24c-29.08,37.49-72.53,59.56-117.55,59.56-70.6,0-116.15-52.56-103.71-122.63Z"/>
        <path d="m1163.57,242.42l41.87-237.91h118.43c44.85,0,75.51,32.94,67.27,79.54-8.06,46.07-50.63,80.59-95.48,80.59h-60.97l-13.67,77.78h-57.46Zm79.89-126.84h48.53c21.72,0,37.32-15.59,40.12-31.54,2.98-16.82-7.36-30.48-29.26-30.48h-48.53l-10.86,62.02Z"/>
        <path d="m1567.01,241.41h-170.46L1438.42,3.5h168.71l-8.41,48.53h-111.07l-7.89,44.15h97.23l-8.41,48.35h-97.23l-8.58,48.53h112.82l-8.58,48.35Z"/>
        <polygon points="62.89 3.5 0 3.5 42.39 241.41 61.5 241.41 90.75 183.42 62.89 3.5"/>
        <polygon points="1090.18 4.23 1071.07 4.54 1042.77 63 1073.54 242.44 1136.42 241.42 1090.18 4.23"/>
      </g>
    </g>
  </g>
</svg>