<?xml version="1.0" encoding="UTF-8"?>
<svg id="uuid-7f58bc56-bfcd-48eb-b0e0-8dc0ea93e226" data-name="Artwork" xmlns="http://www.w3.org/2000/svg" viewBox="0 0 900 900">
  <defs>
    <style>
      .uuid-ab24b46c-fe27-4b12-b256-0d2df94864f7 {
        fill: #fff;
      }

      .uuid-4e2e6b0b-09b8-4045-9825-9badc9337812 {
        fill: #003b59;
      }
    </style>
  </defs>
  <rect class="uuid-4e2e6b0b-09b8-4045-9825-9badc9337812" width="900" height="900"/>
  <g>
    <path class="uuid-ab24b46c-fe27-4b12-b256-0d2df94864f7" d="M112.443,389.518v120.964h-18.317v-120.964h18.317Z"/>
    <path class="uuid-ab24b46c-fe27-4b12-b256-0d2df94864f7" d="M144.582,510.481v-120.964h18.663l47.175,81.737,47.177-81.737h18.661v120.964h-18.317v-87.612l-40.263,69.122h-14.515l-40.263-69.122v87.612h-18.317Z"/>
    <path class="uuid-ab24b46c-fe27-4b12-b256-0d2df94864f7" d="M308.218,389.518h51.669c30.76,0,47.348,19.873,47.348,43.72s-16.761,43.892-47.348,43.892h-33.351v33.351h-18.317v-120.964ZM355.566,459.849c22.81,0,32.66-10.541,32.66-26.611,0-15.898-9.849-26.611-32.66-26.611h-29.031v53.223h29.031Z"/>
    <path class="uuid-ab24b46c-fe27-4b12-b256-0d2df94864f7" d="M430.036,389.518h55.125c28.341,0,43.892,18.663,43.892,40.609,0,16.417-8.639,30.76-24.711,37.153l31.278,43.201h-22.119l-28.687-39.745h-36.462v39.745h-18.317v-120.964ZM481.705,453.629c19.7,0,28.339-9.85,28.339-23.502s-8.639-23.5-28.339-23.5h-33.351v47.002h33.351Z"/>
    <path class="uuid-ab24b46c-fe27-4b12-b256-0d2df94864f7" d="M612.165,387.618c36.289,0,63.938,27.13,63.938,62.382s-27.822,62.382-63.938,62.382-63.938-27.131-63.938-62.382,27.822-62.382,63.938-62.382ZM612.165,494.929c25.402,0,44.929-19.527,44.929-44.929s-19.527-44.929-44.929-44.929c-25.229,0-44.757,19.527-44.757,44.929s19.527,44.929,44.757,44.929Z"/>
    <path class="uuid-ab24b46c-fe27-4b12-b256-0d2df94864f7" d="M733.468,510.481l-51.669-120.964h20.219l41.818,99.19,41.819-99.19h20.219l-51.841,120.964h-20.565Z"/>
  </g>
</svg>