<?xml version="1.0" encoding="UTF-8"?>
<svg id="uuid-b131eaa6-2344-4106-b7a4-291f5aab3f42" data-name="Artwork" xmlns="http://www.w3.org/2000/svg" viewBox="0 0 1440 260">
  <defs>
    <style>
      .uuid-af57de63-fecd-44bd-b90d-d77528808868 {
        fill: #fff;
      }
    </style>
  </defs>
  <path class="uuid-af57de63-fecd-44bd-b90d-d77528808868" d="M37.059,7.633v244.732H0V7.633h37.059Z"/>
  <path class="uuid-af57de63-fecd-44bd-b90d-d77528808868" d="M102.081,252.365V7.633h37.759l95.445,165.369L330.732,7.633h37.756v244.732h-37.059V75.109l-81.46,139.847h-29.368l-81.46-139.847v177.256h-37.059Z"/>
  <path class="uuid-af57de63-fecd-44bd-b90d-d77528808868" d="M433.148,7.633h104.535c62.233,0,95.794,40.207,95.794,88.454s-33.911,88.802-95.794,88.802h-67.476v67.476h-37.059V7.633ZM528.942,149.927c46.15,0,66.077-21.326,66.077-53.84,0-32.164-19.927-53.84-66.077-53.84h-58.735v107.68h58.735Z"/>
  <path class="uuid-af57de63-fecd-44bd-b90d-d77528808868" d="M679.609,7.633h111.527c57.339,0,88.802,37.759,88.802,82.16,0,33.215-17.479,62.233-49.994,75.168l63.282,87.405h-44.751l-58.039-80.413h-73.769v80.413h-37.059V7.633ZM784.144,137.342c39.857,0,57.336-19.929,57.336-47.549s-17.479-47.546-57.336-47.546h-67.476v95.095h67.476Z"/>
  <path class="uuid-af57de63-fecd-44bd-b90d-d77528808868" d="M1048.091,3.789c73.419,0,129.359,54.889,129.359,126.211s-56.29,126.211-129.359,126.211-129.359-54.891-129.359-126.211S975.021,3.789,1048.091,3.789ZM1048.091,220.901c51.393,0,90.901-39.508,90.901-90.901s-39.508-90.901-90.901-90.901c-51.044,0-90.551,39.508-90.551,90.901s39.508,90.901,90.551,90.901Z"/>
  <path class="uuid-af57de63-fecd-44bd-b90d-d77528808868" d="M1293.509,252.365L1188.973,7.633h40.907l84.605,200.681L1399.093,7.633h40.907l-104.885,244.732h-41.606Z"/>
</svg>