<?xml version="1.0" encoding="UTF-8"?>
<svg id="uuid-c5b6b6ac-65aa-44cc-b910-c7e2a6af3b72" data-name="Artwork" xmlns="http://www.w3.org/2000/svg" viewBox="0 0 900 900">
  <defs>
    <style>
      .uuid-7339a623-76af-4d8a-9316-6e43f2a99080 {
        fill: #fff;
      }
    </style>
  </defs>
  <path class="uuid-7339a623-76af-4d8a-9316-6e43f2a99080" d="M730.19,169.458c3.028,6.95,3.908,14.378,2.64,22.287-1.27,7.91-4.704,15.827-10.306,23.751-5.501,7.781-11.876,13.513-19.124,17.195-7.25,3.683-14.819,5.22-22.708,4.612-7.892-.607-15.547-3.534-22.966-8.779-7.062-4.992-12.088-11.028-15.075-18.111-2.99-7.083-3.854-14.609-2.596-22.58,1.257-7.969,4.612-15.809,10.062-23.519,5.55-7.852,11.968-13.607,19.253-17.265,7.284-3.656,14.864-5.133,22.741-4.427,7.873.704,15.487,3.654,22.836,8.849,7.133,5.042,12.213,11.038,15.243,17.987ZM820.02,333.011c.405-3.09-.115-6.278-1.559-9.566-1.488-3.387-3.545-6.039-6.17-7.955-2.625-1.918-5.608-3.003-8.949-3.258-3.341-.255-6.821.413-10.44,2.003-3.553,1.562-6.396,3.612-8.527,6.153-2.132,2.542-3.422,5.376-3.869,8.504-.449,3.128.043,6.319,1.473,9.574,1.503,3.419,3.579,6.072,6.231,7.958,2.65,1.886,5.642,2.947,8.977,3.186,3.333.238,6.794-.43,10.379-2.006,3.652-1.605,6.539-3.666,8.662-6.184,2.122-2.517,3.386-5.321,3.792-8.411ZM845.961,513.281c-1.275-3.028-3.293-5.522-6.054-7.483-2.761-1.961-6.123-3.196-10.086-3.703-3.891-.499-7.421-.203-10.591.888-3.17,1.091-5.764,2.874-7.781,5.351-2.017,2.476-3.254,5.496-3.711,9.059-.48,3.744-.063,7.124,1.251,10.138,1.314,3.014,3.352,5.492,6.115,7.435,2.763,1.943,6.108,3.166,10.035,3.669,3.999.513,7.574.231,10.724-.843,3.149-1.075,5.704-2.845,7.665-5.31,1.96-2.465,3.171-5.497,3.632-9.097.475-3.709.075-7.077-1.2-10.104ZM764.859,682.263c-3.112-2.46-6.326-4.044-9.642-4.751-3.317-.707-6.494-.514-9.533.582-3.039,1.094-5.685,3.067-7.938,5.918-2.368,2.995-3.768,6.141-4.2,9.439-.433,3.297.042,6.507,1.424,9.632,1.382,3.124,3.643,5.928,6.785,8.411,3.199,2.528,6.444,4.148,9.734,4.859,3.29.71,6.427.508,9.411-.607,2.984-1.115,5.614-3.112,7.89-5.991,2.345-2.967,3.754-6.095,4.226-9.382.473-3.289.024-6.503-1.346-9.641-1.371-3.139-3.641-5.961-6.811-8.467ZM623.084,777.122c-5.175-4.835-11.069-7.909-17.687-9.219-6.616-1.313-13.475-.63-20.576,2.047-7.461,2.813-13.353,6.936-17.676,12.372-4.323,5.434-6.928,11.691-7.818,18.771-.889,7.078.14,14.531,3.09,22.355,3.004,7.968,7.068,14.359,12.192,19.172,5.124,4.812,10.955,7.826,17.495,9.043,6.54,1.216,13.397.473,20.569-2.23,7.39-2.786,13.279-6.867,17.663-12.243,4.387-5.377,7.042-11.612,7.968-18.704.925-7.093-.101-14.588-3.077-22.484-2.923-7.753-6.97-14.047-12.143-18.881ZM458.821,781.342c-7.006-6.363-15.747-10.501-26.221-12.418-11.005-2.013-21.071-1.316-30.201,2.094-9.127,3.409-16.784,9.048-22.974,16.917-6.188,7.868-10.339,17.573-12.451,29.114-2.151,11.753-1.884,22.376.795,31.868,2.682,9.491,7.514,17.332,14.497,23.525,6.985,6.191,15.766,10.256,26.345,12.192,10.9,1.995,20.932,1.345,30.091-1.949,9.163-3.293,16.864-8.869,23.106-16.728,6.242-7.86,10.428-17.613,12.558-29.259,2.092-11.435,1.777-21.93-.947-31.483-2.726-9.555-7.59-17.514-14.6-23.875ZM276.089,699.819c-8.393-7.397-17.379-11.988-26.96-13.77-9.578-1.783-19.046-.897-28.407,2.658-9.357,3.553-17.917,9.731-25.675,18.533-7.9,8.964-13.147,18.204-15.742,27.72-2.593,9.515-2.494,18.725.299,27.631,2.795,8.906,8.225,16.915,16.294,24.026,8.313,7.327,17.244,11.941,26.791,13.838,9.55,1.901,19.023,1.091,28.422-2.427,9.4-3.519,18.013-9.72,25.842-18.602,7.687-8.722,12.826-17.877,15.414-27.468,2.589-9.593,2.522-18.921-.207-27.985-2.725-9.064-8.082-17.115-16.071-24.155ZM201.688,604.13c2.843-11.159,2.317-23.039-1.569-35.304-4.065-12.816-10.605-23.286-19.442-31.119-8.845-7.844-19.38-12.913-31.313-15.065-3.977-.718-8.095-1.08-12.242-1.08-8.198,0-16.84,1.419-25.682,4.221-13.514,4.286-24.696,10.6-33.235,18.771-8.669,8.292-14.423,18.111-17.105,29.188-2.67,11.041-2.04,22.903,1.875,35.254,4.021,12.681,10.479,23.13,19.195,31.051,8.748,7.956,19.25,13.113,31.216,15.333,4.033.748,8.221,1.127,12.442,1.127,8.186,0,16.834-1.425,25.703-4.236,13.172-4.174,24.198-10.473,32.779-18.724,8.692-8.357,14.541-18.256,17.378-29.417ZM108.979,456.882c7.438,1.778,14.7,2.679,21.582,2.679,5.678,0,11.235-.612,16.525-1.819,11.865-2.708,22.076-8.227,30.342-16.41,8.265-8.177,13.99-18.729,17.008-31.357,3.152-13.205,2.943-25.667-.624-37.041-3.573-11.388-10.052-21.255-19.256-29.326-9.128-8.009-20.716-13.734-34.445-17.013-7.78-1.86-15.309-2.802-22.379-2.802-5.581,0-11.015.586-16.148,1.743-11.809,2.661-21.897,8.162-29.982,16.351-8.056,8.165-13.681,18.756-16.719,31.478-3.123,13.069-2.973,25.47.45,36.853,3.426,11.435,9.828,21.364,19.027,29.509,9.122,8.077,20.772,13.849,34.621,17.158ZM183.294,255.871c11.399,11.186,23.581,18.908,36.546,23.163,12.969,4.256,25.769,4.851,38.404,1.774,12.633-3.071,24.072-9.829,34.317-20.269,10.764-10.969,17.722-22.958,20.872-35.97,3.15-13.008,2.63-26.061-1.557-39.162-4.186-13.097-12.031-25.293-23.535-36.582-11.715-11.496-24.005-19.373-36.868-23.633-12.862-4.257-25.503-4.797-37.926-1.621-12.422,3.18-23.808,10.04-34.156,20.585-10.662,10.864-17.648,22.778-20.953,35.734-3.31,12.96-2.895,26.016,1.238,39.167,4.136,13.153,12.009,25.425,23.617,36.817ZM549.291,99.732c-1.787-18.829-6.769-34.896-14.939-48.201-8.173-13.301-18.911-23.164-32.215-29.589-13.307-6.422-28.434-8.831-45.382-7.223-17.462,1.657-32.464,6.968-44.996,15.93-12.54,8.963-21.868,20.775-27.991,35.433-6.122,14.662-8.297,31.321-6.526,49.979,1.739,18.32,6.739,34.17,15.004,47.548,8.268,13.38,19.106,23.408,32.523,30.079,13.413,6.674,28.51,9.213,45.29,7.62,17.63-1.673,32.664-7.071,45.101-16.199,12.434-9.124,21.669-21.012,27.707-35.665,6.036-14.65,8.179-31.222,6.425-49.711ZM555.499,345.691c5.164,2.632,10.364,3.967,15.455,3.967.653,0,1.307-.021,1.96-.063,5.733-.383,11.083-2.299,15.906-5.694,4.786-3.369,8.78-8.15,11.876-14.213,3.138-6.153,4.775-12.188,4.862-17.937.092-5.83-1.341-11.172-4.256-15.879-2.907-4.692-7.229-8.525-12.844-11.39-5.216-2.661-10.487-4.009-15.664-4.009-.551,0-1.097.013-1.645.045-5.741.312-11.112,2.183-15.966,5.565-4.815,3.361-8.837,8.163-11.959,14.279-3.057,5.993-4.647,11.968-4.723,17.764-.076,5.859,1.351,11.259,4.245,16.055,2.892,4.794,7.181,8.667,12.755,11.511ZM630.846,413.844c4.439,2.283,9.241,3.442,14.262,3.442.812,0,1.63-.028,2.457-.09,5.886-.424,11.818-2.475,17.629-6.1,5.895-3.677,10.437-8.035,13.503-12.955,3.11-4.994,4.65-10.362,4.579-15.963-.078-5.576-1.819-11.137-5.18-16.53-3.454-5.539-7.794-9.718-12.902-12.422-4.467-2.37-9.324-3.569-14.433-3.569-.749,0-1.506.025-2.274.074-5.907.403-11.874,2.46-17.738,6.115-5.746,3.584-10.216,7.915-13.29,12.877-3.116,5.027-4.693,10.446-4.681,16.102.006,5.66,1.704,11.242,5.04,16.591,3.491,5.598,7.872,9.777,13.026,12.425ZM696.846,445.26c-5.425-2.785-11.697-4.194-18.665-4.194l-.824.009c-7.106.115-13.511,1.613-19.039,4.454-5.734,2.952-10.255,7.141-13.44,12.451-3.188,5.319-4.745,11.471-4.633,18.282.112,7.061,1.851,13.355,5.169,18.709,3.326,5.372,7.936,9.578,13.702,12.507,5.422,2.746,11.656,4.139,18.529,4.139h.012l.836-.009c7.267-.118,13.743-1.601,19.239-4.409,5.734-2.932,10.217-7.114,13.322-12.433,3.076-5.275,4.577-11.415,4.465-18.256-.112-6.976-1.807-13.234-5.042-18.603-3.267-5.425-7.853-9.678-13.631-12.645ZM667.932,544.955c-6.152-3.565-12.413-5.578-18.606-5.99-.827-.056-1.642-.082-2.455-.082-5.507,0-10.714,1.286-15.477,3.824-5.469,2.908-9.978,7.376-13.399,13.275-3.541,6.105-5.295,12.395-5.213,18.703.082,6.311,1.863,12.289,5.295,17.776,3.364,5.36,8.233,9.911,14.473,13.528,6.296,3.644,12.607,5.71,18.762,6.134.836.062,1.666.088,2.484.088,5.484,0,10.644-1.304,15.339-3.874,5.351-2.929,9.805-7.418,13.243-13.346,3.497-6.034,5.266-12.268,5.263-18.538-.006-6.337-1.743-12.348-5.163-17.861-3.347-5.392-8.242-9.981-14.547-13.637ZM574.331,675.133c4.936,0,9.94-1.38,14.871-4.097,5.431-2.994,9.616-6.9,12.439-11.606,2.84-4.727,4.242-10.002,4.162-15.677-.077-5.622-1.725-11.388-4.895-17.143-3.108-5.634-6.991-10.096-11.544-13.263-4.618-3.211-9.681-4.983-15.038-5.26-.477-.026-.954-.038-1.431-.038-4.886,0-9.787,1.339-14.57,3.977-5.487,3.026-9.675,6.97-12.454,11.727-2.779,4.763-4.136,10.043-4.03,15.698.106,5.61,1.751,11.341,4.892,17.037,3.191,5.781,7.094,10.311,11.603,13.466,4.586,3.208,9.605,4.942,14.915,5.16l1.08.021ZM488.248,644.715c-3.17-2.143-6.935-3.308-11.188-3.467l-1.08-.021c-4,0-7.627.877-10.776,2.605-3.441,1.884-6.202,4.604-8.209,8.086-1.981,3.435-3.073,7.506-3.25,12.098-.174,4.642.542,8.801,2.125,12.366,1.619,3.635,4.047,6.535,7.217,8.624,3.152,2.072,6.923,3.205,11.2,3.364l1.074.021c3.956,0,7.568-.854,10.729-2.534,3.464-1.84,6.249-4.542,8.283-8.027,2.005-3.438,3.108-7.532,3.285-12.165.171-4.527-.556-8.639-2.161-12.224-1.64-3.65-4.077-6.588-7.25-8.725ZM488.248,273.238c-3.17-2.143-6.935-3.308-11.188-3.467l-1.08-.021c-4,0-7.627.877-10.776,2.605-3.441,1.884-6.202,4.604-8.209,8.086-1.981,3.435-3.073,7.506-3.25,12.098-.174,4.642.542,8.801,2.125,12.366,1.619,3.635,4.047,6.535,7.217,8.624,3.152,2.072,6.923,3.205,11.2,3.364l1.074.021c3.956,0,7.568-.854,10.729-2.534,3.464-1.84,6.249-4.542,8.283-8.027,2.005-3.438,3.108-7.532,3.285-12.165.171-4.527-.556-8.639-2.161-12.224-1.64-3.65-4.077-6.588-7.25-8.725ZM371.501,646.055c2.216,1.451,4.548,2.249,6.923,2.375l.692.021c2.152,0,4.227-.545,6.175-1.613,2.116-1.16,3.959-2.929,5.478-5.254,1.486-2.275,2.384-4.618,2.667-6.967.291-2.422-.062-4.73-1.051-6.858-.989-2.125-2.59-3.921-4.76-5.339-2.243-1.466-4.592-2.261-7.512-2.37-2.202,0-4.324.556-6.311,1.654-2.102,1.166-3.93,2.929-5.437,5.236-1.519,2.322-2.434,4.683-2.726,7.017-.297,2.422.065,4.715,1.071,6.814,1.001,2.081,2.611,3.859,4.789,5.284ZM321.096,547.159c-1.96-1.289-4.171-1.984-7.032-2.078-2.202,0-4.468.556-6.738,1.651-2.443,1.183-4.401,2.699-5.825,4.515-1.472,1.884-2.325,3.988-2.54,6.261-.212,2.258.244,4.562,1.351,6.85,1.13,2.337,2.682,4.183,4.612,5.49,1.949,1.316,4.159,2.031,6.567,2.128l.518.009c2.196,0,4.459-.556,6.729-1.654,2.387-1.154,4.321-2.667,5.746-4.495,1.472-1.89,2.34-4.006,2.581-6.29.244-2.284-.194-4.598-1.298-6.882-1.142-2.364-2.714-4.215-4.671-5.504ZM306.653,467.479c1.398-1.846,2.225-4.074,2.458-6.626.241-2.64-.153-5.06-1.174-7.188-1.024-2.134-2.576-3.885-4.607-5.204-1.996-1.295-4.377-2.078-7.082-2.322-.636-.059-1.254-.088-1.857-.088-1.999,0-3.856.324-5.528.963-2.252.862-4.086,2.237-5.448,4.089-1.357,1.84-2.163,4.068-2.396,6.626-.238,2.614.144,5.019,1.133,7.141.998,2.155,2.537,3.924,4.568,5.257,1.993,1.31,4.392,2.102,7.129,2.349.598.056,1.186.082,1.757.082,1.99,0,3.859-.333,5.551-.983,2.255-.871,4.106-2.252,5.496-4.094ZM338.619,354.157c-2.24-1.64-4.548-2.679-6.867-3.094-.777-.138-1.539-.206-2.29-.206-1.578,0-3.114.306-4.568.91-2.134.889-3.994,2.402-5.531,4.498-1.569,2.143-2.493,4.427-2.743,6.791-.256,2.39.156,4.724,1.222,6.938,1.045,2.175,2.711,4.109,4.954,5.755,2.193,1.607,4.486,2.626,6.811,3.032.789.138,1.56.206,2.319.206h.003c1.578,0,3.12-.297,4.589-.886,2.175-.877,4.053-2.378,5.584-4.468,1.587-2.166,2.505-4.471,2.729-6.847.227-2.384-.203-4.71-1.277-6.914-1.051-2.161-2.711-4.083-4.933-5.713ZM382.644,328.65c2.721,1.666,5.653,2.501,8.711,2.481.826-.006,1.646-.075,2.462-.212,2.2-.368,4.38-1.227,6.478-2.55,2.994-1.89,5.232-4.261,6.65-7.054,1.415-2.793,2.008-5.831,1.76-9.029-.243-3.164-1.36-6.34-3.316-9.438-1.979-3.138-4.325-5.556-6.975-7.191-2.711-1.665-5.621-2.482-8.649-2.426-.755.013-1.507.084-2.258.209-2.237.374-4.472,1.257-6.642,2.623-2.961,1.867-5.196,4.216-6.645,6.98-1.452,2.777-2.071,5.815-1.837,9.028.23,3.171,1.348,6.368,3.324,9.499,1.929,3.059,4.262,5.441,6.937,7.079Z"/>
</svg>