<?xml version="1.0" encoding="UTF-8"?>
<svg id="Layer_2" data-name="Layer 2" xmlns="http://www.w3.org/2000/svg" viewBox="0 0 2066.95 245.38">
  <defs>
    <style>
      .cls-1 {
        fill: #fff;
      }
    </style>
  </defs>
  <g id="Layer_1-2" data-name="Layer 1">
    <g>
      <path class="cls-1" d="m1663.38,65.63l-29.91,179.75h403.57l29.91-179.75h-403.57Zm360.88,164.67h-372.99l24.9-149.59h372.99l-24.9,149.59Z"/>
      <polygon class="cls-1" points="1728.52 101.58 1714.04 101.58 1695.09 209.43 1738.69 209.43 1741.01 196.33 1711.89 196.33 1728.52 101.58"/>
      <path class="cls-1" d="m1800.94,101.58l-40.37,107.85h14.33l9.09-25.42h23.11l.15,25.42h14.33l-2.77-107.85h-17.87Zm-12.63,70.25l18.49-52.08.31,52.08h-18.8Z"/>
      <path class="cls-1" d="m1897.71,101.58h-27.27l-18.95,107.85h26.96c17.87,0,27.42-8.16,29.58-21.26l3.24-17.72c1.39-7.86-1.08-15.71-9.71-17.1,9.24-1.08,13.71-8.17,15.1-16.95l2.31-13.56c2.47-13.1-6.47-21.26-21.26-21.26Zm-.77,67.94l-2.93,16.18c-1.23,7.55-5.39,11.09-12.63,11.09h-13.1l6.32-36.98h13.1c6.93,0,10.32,3.08,9.24,9.71Zm7.09-44.22l-2.16,12.48c-1.23,6.62-5.7,9.7-12.48,9.7h-12.63l6.01-33.28h12.48c7.39,0,10.17,3.54,8.78,11.09Z"/>
      <path class="cls-1" d="m1983.28,100.35h-.31c-16.33,0-26.81,6.62-29.58,22.19l-2.31,13.56c-1.54,8.94,3.23,15.1,11.4,20.18l12.48,7.7c5.86,3.54,7.7,6.47,6.47,13.25l-1.54,8.47c-1.39,8.47-6.32,12.33-13.87,12.33s-10.94-3.85-9.55-12.33l2.93-15.87h-14.33l-3.24,18.33c-2.93,16.33,7.09,22.49,21.88,22.49h.31c17.87,0,26.81-6.32,29.58-22.49l2.77-14.79c1.85-10.48-3.39-15.25-11.71-20.49l-12.79-7.7c-5.55-3.54-7.09-6.32-6.01-12.79l1.39-7.4c1.39-8.63,6.16-12.02,13.56-12.02s10.94,3.39,9.55,12.02l-2.77,14.64h14.33l2.93-17.1c2.93-15.56-8.32-22.19-21.57-22.19Z"/>
      <polygon class="cls-1" points="181.5 3.5 90.75 183.42 62.89 3.5 0 3.5 42.39 241.41 61.5 241.41 118.25 241.41 244.39 3.5 181.5 3.5"/>
      <polygon class="cls-1" points="435.01 52.03 443.42 3.5 274.71 3.5 232.84 241.41 403.3 241.41 411.88 193.06 299.06 193.06 307.64 144.53 404.87 144.53 413.28 96.18 316.05 96.18 323.94 52.03 435.01 52.03"/>
      <path class="cls-1" d="m557.74,50.63c23.12,0,37.49,16.47,45.37,31.53l48.18-31.36c-15.59-30.66-42.4-50.81-84.62-50.81s-91.1,27.15-98.81,70.95c-8.58,48.7,27.68,62.37,67.97,75.16,26.98,8.58,46.43,13.14,43.62,28.38-1.93,10.86-18.57,18.4-37.32,18.4-23.12,0-43.1-13.14-52.91-34.16l-48.88,31.54c11.74,35.74,48.35,54.66,91.1,54.66,45.38,0,97.76-22.77,106.52-72.35,7.71-43.45-22.07-57.64-72.7-75.51-24.18-8.58-41.87-11.39-39.07-27.15,1.93-11.39,14.89-19.27,31.54-19.27Z"/>
      <path class="cls-1" d="m782.66,190.96c-40.12,0-61.32-29.08-54.31-68.67,7.01-39.59,38.36-68.33,78.48-68.33,29.26,0,44.32,16.12,55.01,38.19l50.1-32.76c-15.24-36.26-53.43-59.39-95.65-59.39-70.6,0-134.72,52.21-146.99,122.28-12.44,70.08,33.11,122.63,103.71,122.63,45.03,0,88.47-22.07,117.55-59.56l-38.37-32.24c-20.85,24.88-43.1,37.84-69.55,37.84Z"/>
      <path class="cls-1" d="m1323.87,4.51h-118.43l-41.87,237.91h57.46l13.67-77.78h60.97c44.85,0,87.42-34.51,95.48-80.59,8.24-46.6-22.42-79.54-67.27-79.54Zm8.24,79.54c-2.8,15.94-18.4,31.54-40.12,31.54h-48.53l10.86-62.02h48.53c21.9,0,32.24,13.67,29.26,30.48Z"/>
      <polygon class="cls-1" points="1396.55 241.41 1567.01 241.41 1575.59 193.06 1462.77 193.06 1471.35 144.53 1568.58 144.53 1576.99 96.18 1479.76 96.18 1487.65 52.03 1598.72 52.03 1607.13 3.5 1438.42 3.5 1396.55 241.41"/>
      <polygon class="cls-1" points="1071.07 4.54 1014.33 5.46 892.07 245.38 954.95 244.36 1042.77 63 1073.54 242.44 1136.42 241.42 1090.18 4.23 1071.07 4.54"/>
    </g>
  </g>
</svg>