<?xml version="1.0" encoding="UTF-8"?>
<svg id="Layer_2" data-name="Layer 2" xmlns="http://www.w3.org/2000/svg" viewBox="0 0 1200 1200">
  <defs>
    <style>
      .cls-1 {
        fill: #fff;
      }

      .cls-2 {
        fill: #f06;
      }
    </style>
  </defs>
  <g id="Layer_1-2" data-name="Layer 1">
    <rect class="cls-2" width="1200" height="1200"/>
    <g>
      <g>
        <polygon class="cls-1" points="265.59 536.58 227.98 536.58 173.71 644.18 156.22 678.86 190.16 678.86 265.59 536.58"/>
        <polygon class="cls-1" points="726.05 537.75 652.93 681.23 690.53 680.62 743.05 572.16 759.98 537.2 726.05 537.75"/>
      </g>
      <g>
        <path class="cls-1" d="m360.63,678.86h-101.94l25.04-142.28h100.89l-5.03,29.02h-66.42l-4.71,26.4h58.15l-5.03,28.92h-58.15l-5.13,29.02h67.47l-5.13,28.92Z"/>
        <path class="cls-1" d="m412.02,629.41c5.87,12.57,17.81,20.43,31.64,20.43,11.21,0,21.16-4.51,22.32-11,1.68-9.11-9.95-11.84-26.09-16.97-24.1-7.65-45.78-15.82-40.65-44.95,4.61-26.19,33-42.43,59.09-42.43s41.28,12.05,50.6,30.38l-28.81,18.75c-4.71-9.01-13.3-18.86-27.13-18.86-9.95,0-17.71,4.71-18.86,11.52-1.68,9.43,8.91,11.11,23.36,16.24,30.28,10.69,48.09,19.17,43.48,45.16-5.24,29.65-36.56,43.27-63.7,43.27-25.56,0-47.46-11.32-54.48-32.69l29.23-18.86Z"/>
        <path class="cls-1" d="m519.71,607.62c7.33-41.91,45.68-73.13,87.9-73.13,25.25,0,48.09,13.83,57.2,35.52l-29.96,19.59c-6.39-13.2-15.4-22.84-32.9-22.84-23.99,0-42.75,17.18-46.94,40.86-4.19,23.68,8.49,41.07,32.48,41.07,15.82,0,29.13-7.75,41.59-22.63l22.94,19.28c-17.39,22.42-43.37,35.62-70.3,35.62-42.22,0-69.46-31.43-62.02-73.34Z"/>
        <path class="cls-1" d="m815.3,679.46l25.04-142.28h70.82c26.82,0,45.16,19.7,40.23,47.57-4.82,27.55-30.28,48.19-57.1,48.19h-36.46l-8.17,46.52h-34.37Zm47.78-75.85h29.02c12.99,0,22.32-9.33,23.99-18.86,1.78-10.06-4.4-18.23-17.5-18.23h-29.02l-6.5,37.09Z"/>
        <path class="cls-1" d="m1056.57,678.86h-101.94l25.04-142.28h100.89l-5.03,29.02h-66.42l-4.72,26.4h58.15l-5.03,28.92h-58.15l-5.13,29.02h67.47l-5.13,28.92Z"/>
        <polygon class="cls-1" points="157.05 536.58 119.44 536.58 144.79 678.86 156.22 678.86 173.71 644.18 157.05 536.58"/>
        <polygon class="cls-1" points="771.41 537.02 759.98 537.2 743.05 572.16 761.45 679.47 799.06 678.86 771.41 537.02"/>
      </g>
    </g>
  </g>
</svg>