<?xml version="1.0" encoding="UTF-8"?>
<svg id="Layer_2" data-name="Layer 2" xmlns="http://www.w3.org/2000/svg" viewBox="0 0 720 109.93">
  <g id="Layer_1-2" data-name="Layer 1">
    <g>
      <polygon points="81.31 1.57 40.66 82.17 28.18 1.57 0 1.57 18.99 108.15 27.55 108.15 52.98 108.15 109.49 1.57 81.31 1.57"/>
      <polygon points="194.89 23.31 198.65 1.57 123.07 1.57 104.31 108.15 180.68 108.15 184.53 86.49 133.98 86.49 137.83 64.75 181.39 64.75 185.15 43.09 141.59 43.09 145.13 23.31 194.89 23.31"/>
      <path d="m249.87,22.68c10.36,0,16.8,7.38,20.33,14.13l21.58-14.05c-6.98-13.74-18.99-22.76-37.91-22.76s-40.81,12.17-44.27,31.79c-3.85,21.82,12.4,27.94,30.45,33.67,12.09,3.85,20.8,5.89,19.54,12.71-.86,4.87-8.32,8.24-16.72,8.24-10.36,0-19.31-5.89-23.7-15.31l-21.9,14.13c5.26,16.01,21.66,24.49,40.81,24.49,20.33,0,43.79-10.2,47.72-32.42,3.45-19.46-9.89-25.82-32.57-33.83-10.83-3.85-18.76-5.1-17.5-12.17.86-5.1,6.67-8.63,14.13-8.63Z"/>
      <path d="m350.64,85.55c-17.97,0-27.47-13.03-24.33-30.77,3.14-17.74,17.19-30.61,35.16-30.61,13.11,0,19.86,7.22,24.64,17.11l22.45-14.68c-6.83-16.25-23.94-26.61-42.85-26.61-31.63,0-60.36,23.39-65.85,54.78-5.57,31.39,14.83,54.94,46.46,54.94,20.17,0,39.64-9.89,52.66-26.69l-17.19-14.44c-9.34,11.15-19.31,16.95-31.16,16.95Z"/>
      <path d="m593.1,2.02h-53.06l-18.76,106.58h25.74l6.12-34.85h27.31c20.09,0,39.16-15.46,42.77-36.1,3.69-20.88-10.05-35.63-30.14-35.63Zm3.69,35.63c-1.26,7.14-8.24,14.13-17.97,14.13h-21.74l4.87-27.78h21.74c9.81,0,14.44,6.12,13.11,13.66Z"/>
      <polygon points="716.23 23.31 720 1.57 644.42 1.57 625.66 108.15 702.03 108.15 705.87 86.49 655.33 86.49 659.17 64.75 702.73 64.75 706.5 43.09 662.94 43.09 666.47 23.31 716.23 23.31"/>
      <polygon points="479.84 2.04 454.42 2.45 399.65 109.93 427.82 109.47 467.17 28.22 480.95 108.61 509.12 108.16 488.4 1.9 479.84 2.04"/>
    </g>
  </g>
</svg>