<?xml version="1.0" encoding="UTF-8"?><svg id="a" xmlns="http://www.w3.org/2000/svg" xmlns:xlink="http://www.w3.org/1999/xlink" viewBox="0 0 495.388 381.536"><defs><style>.c{fill:none;}.c,.d,.e{stroke-width:0px;}.f{clip-path:url(#b);}.d{fill:#f02d57;}.e{fill:#06010c;}</style><clipPath id="b"><path class="c" d="M10.124,0v381.536h471.662V0H10.124ZM411.784,292.523l-44.897-3.829-59.863-35.275h-68.67v55.5l-162.948,5.611-32.828-23.605,1.338-178.418,146.154-21.57,55.884,28.483-7.6,31.668h146.395l14.749,25.073,27.035,43.449-14.749,72.913Z"/></clipPath></defs><path class="e" d="M251.986,285.207l42.8-78.059c.675-1.231.675-2.72,0-3.951l-42.8-78.059c-1.466-3.43,2.155-6.839,5.798-5.459l83.093,43.544c1.194.626,2.62.626,3.814,0l83.093-43.544c3.643-1.38,7.264,2.029,5.798,5.459l-42.8,78.059c-.675,1.231-.675,2.72,0,3.951l42.8,78.059c1.466,3.43-2.155,6.839-5.798,5.459l-83.093-43.544c-1.194-.626-2.62-.626-3.814,0l-83.093,43.544c-3.643,1.38-7.264-2.029-5.798-5.459Z"/><path class="e" d="M222.807,142.322c-19.397-14.78-45.469-22.902-72.167-22.902-44.609,0-66.878,0-77.996,10.719-11.117,10.719-11.082,32.157-11.082,75.033s-.035,64.314,11.082,75.034c11.117,10.719,33.387,10.719,77.996,10.719,26.698,0,52.77-8.122,72.167-22.902,19.397-14.78,32.12-36.218,32.12-62.85s-12.723-48.07-32.12-62.85Z"/><g class="f"><path class="d" d="M132.49,367.147c-28.269,0-49.652-8.407-61.955-24.817-17.976-23.978-14.112-61.787,10.878-106.463,24.517-43.83,66.566-89.369,118.403-128.229,51.836-38.86,107.339-66.453,156.285-77.696,49.89-11.46,87.268-4.568,105.241,19.411,17.976,23.978,14.112,61.787-10.878,106.463-24.518,43.83-66.566,89.369-118.403,128.229-51.836,38.86-107.339,66.453-156.284,77.696-15.746,3.617-30.251,5.406-43.287,5.406ZM399.509,31.365c-12.519,0-26.546,1.741-41.873,5.262-48.032,11.033-102.62,38.202-153.707,76.5-51.086,38.298-92.471,83.077-116.53,126.089-23.586,42.166-27.626,77.324-11.376,99s51.131,27.656,98.218,16.84c48.032-11.034,102.62-38.202,153.707-76.5l2.057,2.744-2.057-2.744c51.086-38.298,92.471-83.077,116.53-126.089,23.586-42.166,27.626-77.324,11.376-99-10.96-14.621-30.403-22.102-56.345-22.102Z"/></g></svg>