<?xml version="1.0" encoding="UTF-8"?><svg id="a" xmlns="http://www.w3.org/2000/svg" viewBox="0 0 260 260"><defs><style>.b{fill:#f02d57;stroke-width:0px;}</style></defs><rect class="b" x="127.519" y="226.744" width="4.961" height="32.248"/><rect class="b" x="127.519" y="1.011" width="4.961" height="32.248"/><rect class="b" x="139.37" y="226.655" width="4.961" height="32.425" transform="translate(-24.59 16.144) rotate(-5.995)"/><rect class="b" x="115.668" y=".922" width="4.961" height="32.425" transform="translate(-1.143 12.434) rotate(-5.995)"/><rect class="b" x="151.512" y="226.385" width="4.961" height="32.964" transform="translate(-47.018 37.215) rotate(-11.969)"/><rect class="b" x="103.528" y=".652" width="4.961" height="32.964" transform="translate(-1.249 22.359) rotate(-11.97)"/><rect class="b" x="164.2" y="225.914" width="4.962" height="33.908" transform="translate(-66.905 63.411) rotate(-18.004)"/><rect class="b" x="90.838" y=".18" width="4.962" height="33.908" transform="translate(-.727 29.682) rotate(-18.004)"/><rect class="b" x="177.777" y="225.219" width="4.962" height="35.296" transform="translate(-83.172 94.266) rotate(-23.989)"/><rect class="b" x="77.278" y="-.52" width="4.961" height="35.31" transform="translate(-.063 33.973) rotate(-24.037)"/><rect class="b" x="192.514" y="224.292" width="4.96" height="36.539" transform="translate(-95.209 130.131) rotate(-30.027)"/><rect class="b" x="62.541" y="-.821" width="4.961" height="36.523" transform="translate(-.014 34.827) rotate(-29.982)"/><rect class="b" x="207.589" y="223.16" width="4.961" height="34.095" transform="translate(-101.114 169.543) rotate(-36.035)"/><rect class="b" x="47.449" y="2.718" width="4.961" height="34.122" transform="translate(-2.089 33.128) rotate(-36.003)"/><rect class="b" x="220.908" y="217.488" width="4.961" height="32.378" transform="translate(-98.987 209.565) rotate(-42.012)"/><rect class="b" x="34.179" y="10.097" width="4.961" height="32.424" transform="translate(-8.186 31.301) rotate(-42.017)"/><rect class="b" x="231.211" y="207.13" width="4.962" height="32.423" transform="translate(-88.661 247.466) rotate(-47.983)"/><rect class="b" x="23.844" y="20.423" width="4.961" height="32.378" transform="translate(-18.497 31.666) rotate(-47.987)"/><rect class="b" x="237.741" y="193.011" width="4.961" height="34.121" transform="translate(-70.935 280.912) rotate(-53.995)"/><rect class="b" x="17.298" y="32.837" width="4.961" height="34.122" transform="translate(-32.214 36.566) rotate(-53.996)"/><rect class="b" x="240.079" y="176.686" width="4.961" height="36.523" transform="translate(-47.517 307.621) rotate(-60.017)"/><rect class="b" x="14.96" y="46.761" width="4.961" height="36.523" transform="translate(-47.596 47.634) rotate(-60.017)"/><rect class="b" x="240.385" y="162.588" width="4.961" height="35.309" transform="translate(-20.671 328.632) rotate(-65.964)"/><rect class="b" x="14.654" y="62.072" width="4.961" height="35.309" transform="translate(-62.658 62.901) rotate(-65.964)"/><rect class="b" x="240.385" y="149.696" width="4.961" height="33.908" transform="translate(9.309 346.114) rotate(-71.996)"/><rect class="b" x="14.654" y="76.366" width="4.961" height="33.908" transform="translate(-76.912 80.771) rotate(-71.996)"/><rect class="b" x="240.385" y="137.491" width="4.961" height="32.971" transform="translate(41.669 359.434) rotate(-77.975)"/><rect class="b" x="14.654" y="89.507" width="4.961" height="32.971" transform="translate(-90.102 100.669) rotate(-77.975)"/><rect class="b" x="240.385" y="125.639" width="4.961" height="32.425" transform="translate(76.427 368.576) rotate(-84.006)"/><rect class="b" x="14.654" y="101.905" width="4.961" height="32.425" transform="translate(-102.127 122.823) rotate(-84.006)"/><rect class="b" x="226.742" y="127.52" width="32.247" height="4.961"/><rect class="b" x="1.011" y="127.52" width="32.247" height="4.961"/><rect class="b" x="226.653" y="115.637" width="32.425" height="4.961" transform="translate(-10.995 25.975) rotate(-5.987)"/><rect class="b" x=".922" y="139.371" width="32.425" height="4.961" transform="translate(-14.701 2.561) rotate(-5.987)"/><rect class="b" x="226.38" y="103.512" width="32.971" height="4.961" transform="translate(-16.745 52.886) rotate(-12.017)"/><rect class="b" x=".649" y="151.496" width="32.971" height="4.961" transform="translate(-31.682 6.941) rotate(-12.017)"/><rect class="b" x="225.912" y="90.839" width="33.908" height="4.961" transform="translate(-16.95 79.615) rotate(-18)"/><rect class="b" x=".18" y="164.17" width="33.908" height="4.961" transform="translate(-50.658 13.451) rotate(-18)"/><rect class="b" x="225.211" y="77.246" width="35.309" height="4.961" transform="translate(-11.412 105.861) rotate(-24.042)"/><rect class="b" x="-.52" y="177.762" width="35.309" height="4.961" transform="translate(-71.945 22.617) rotate(-24.042)"/><rect class="b" x="224.298" y="62.542" width="36.523" height="4.961" transform="translate(-.042 129.886) rotate(-29.975)"/><rect class="b" x="-.821" y="192.467" width="36.523" height="4.961" transform="translate(-95.068 34.789) rotate(-29.975)"/><rect class="b" x="223.161" y="47.417" width="34.121" height="4.961" transform="translate(16.559 150.751) rotate(-36.006)"/><rect class="b" x="2.718" y="207.591" width="34.122" height="4.961" transform="translate(-119.716 51.76) rotate(-36.006)"/><rect class="b" x="217.491" y="34.163" width="32.402" height="4.961" transform="translate(35.45 165.697) rotate(-41.975)"/><rect class="b" x="10.108" y="220.878" width="32.402" height="4.961" transform="translate(-142.634 74.902) rotate(-41.975)"/><rect class="b" x="207.155" y="23.829" width="32.402" height="4.961" transform="translate(54.413 174.762) rotate(-48.024)"/><rect class="b" x="20.443" y="231.213" width="32.402" height="4.961" transform="translate(-161.598 104.637) rotate(-48.024)"/><rect class="b" x="193.009" y="17.298" width="34.122" height="4.961" transform="translate(70.576 178.088) rotate(-53.994)"/><rect class="b" x="32.869" y="237.71" width="34.122" height="4.961" transform="translate(-173.726 139.38) rotate(-53.994)"/><rect class="b" x="176.717" y="14.96" width="36.523" height="4.961" transform="translate(82.411 177.595) rotate(-60.009)"/><rect class="b" x="46.736" y="240.081" width="36.539" height="4.96" transform="translate(-177.526 177.446) rotate(-59.969)"/><rect class="b" x="162.587" y="14.654" width="35.31" height="4.961" transform="translate(91.162 174.759) rotate(-65.958)"/><rect class="b" x="62.094" y="240.387" width="35.296" height="4.962" transform="translate(-174.566 216.967) rotate(-66.008)"/><rect class="b" x="149.727" y="14.653" width="33.908" height="4.962" transform="translate(98.86 170.355) rotate(-71.993)"/><rect class="b" x="76.365" y="240.387" width="33.908" height="4.962" transform="translate(-166.501 256.537) rotate(-71.993)"/><rect class="b" x="137.51" y="14.654" width="32.964" height="4.961" transform="translate(105.285 164.222) rotate(-78.027)"/><rect class="b" x="89.526" y="240.387" width="32.964" height="4.961" transform="translate(-153.567 296.187) rotate(-78.027)"/><rect class="b" x="125.639" y="14.654" width="32.425" height="4.961" transform="translate(109.988 156.418) rotate(-84.002)"/><rect class="b" x="101.937" y="240.387" width="32.425" height="4.961" transform="translate(-135.735 334.992) rotate(-84.002)"/></svg>