<?xml version="1.0" encoding="UTF-8"?><svg id="a" xmlns="http://www.w3.org/2000/svg" viewBox="0 0 260 260"><defs><style>.b{fill:#f02d57;stroke-width:0px;}</style></defs><path class="b" d="M217.523,79.654c-4.637-6.437-9.823-12.619-15.521-18.47l-20.468,20.479c7.718,7.855,14.782,16.052,21.084,24.429,6.155-9.319,11.183-18.245,14.905-26.438Z"/><path class="b" d="M199.974,110.019c-6.342-8.554-13.563-17.023-21.594-25.2l-20.471,20.482c8.944,9.024,17.345,18.17,25.016,27.212,6.298-7.598,12.008-15.149,17.049-22.493Z"/><path class="b" d="M175.215,81.673c-8.098-7.958-16.558-15.202-25.2-21.613-7.341,5.041-14.891,10.749-22.487,17.047,9.046,7.677,18.197,16.086,27.226,25.038l20.461-20.472Z"/><path class="b" d="M155.834,23.155c8.608,3.87,16.985,8.626,24.996,14.203,11.012-4.693,20.778-7.037,28.643-6.715-14.725-8.696-33.514-11.007-53.64-7.488Z"/><path class="b" d="M146.077,57.208c-10.79-7.64-21.803-13.973-32.689-18.748-6.784,3.696-13.508,7.976-20.078,12.824,9.795,6.384,20.153,14.101,30.706,22.862,7.467-6.253,14.859-11.917,22.061-16.939Z"/><path class="b" d="M205.156,58.028c5.232,5.369,10.046,11.012,14.414,16.873,6.069-14.954,7.323-27.02,2.56-33.856l-16.974,16.983Z"/><path class="b" d="M235.253,111.83c-3.806-9.596-8.745-18.948-14.724-27.86-3.853,8.176-8.897,16.945-15.015,26.063,7.474,10.394,13.768,21.018,18.674,31.566,4.972-9.949,8.68-19.972,11.065-29.768Z"/><path class="b" d="M198.847,58.028c-5.852-5.699-12.035-10.886-18.471-15.523-8.189,3.724-17.112,8.752-26.429,14.908,8.379,6.305,16.578,13.373,24.433,21.094l20.467-20.479Z"/><path class="b" d="M236.854,104.172c3.509-20.112,1.201-38.89-7.479-53.612.322,7.868-2.018,17.632-6.705,28.641,5.569,8.002,10.319,16.371,14.185,24.972Z"/><path class="b" d="M243.49,143.523c-1.023-8.184-2.902-16.342-5.569-24.369-2.75,9.322-6.582,18.622-11.39,27.725,1.756,4.16,3.292,8.3,4.591,12.4,4.628,14.6,5.987,27.784,4.167,38.914,7.837-15.711,10.729-34.437,8.2-54.671Z"/><path class="b" d="M239.941,64.051c3.664,12.919,3.989,27.773.78,43.814-.244,1.218-.513,2.437-.795,3.656,3.963,10.29,6.667,20.847,7.992,31.448,1.767,14.143.984,27.596-2.188,39.893,17.716-37.776,15.786-82.563-5.789-118.811Z"/><path class="b" d="M84.516,45.82c1.573.926,3.17,1.903,4.78,2.907,6.175-4.639,12.496-8.785,18.886-12.43-2.934-1.157-5.856-2.215-8.754-3.135-19.46-6.175-36.099-6.3-48.207-.577,7.332.624,17.941,4.202,33.295,13.235Z"/><path class="b" d="M61.879,24.729c11.122-1.815,24.3-.452,38.898,4.179,4.119,1.307,8.279,2.851,12.458,4.618,9.24-4.861,18.58-8.668,27.798-11.378-8.069-2.694-16.271-4.59-24.498-5.62-20.226-2.532-38.948.36-54.656,8.201Z"/><path class="b" d="M118.424,35.831c10.554,4.909,21.184,11.207,31.582,18.686,9.116-6.119,17.883-11.163,26.056-15.017-8.92-5.987-18.28-10.932-27.883-14.741-9.792,2.387-19.811,6.098-29.756,11.072Z"/><path class="b" d="M77.166,14.296c12.305-3.182,25.768-3.968,39.923-2.196,10.642,1.332,21.24,4.055,31.57,8.049,16.992-3.907,33.336-3.975,47.58.085C159.939-1.506,115.024-3.486,77.166,14.296Z"/><path class="b" d="M185.127,40.457c5.86,4.369,11.504,9.183,16.874,14.416l16.976-16.985c-6.825-4.766-18.89-3.508-33.85,2.569Z"/><path class="b" d="M158.334,159.288l-27.183-27.219-20.493,20.467c9.144,9.066,18.407,17.56,27.549,25.291,6.897-5.915,13.648-12.135,20.126-18.539Z"/><path class="b" d="M188.709,189.669l-27.221-27.225c-6.382,6.311-13.028,12.442-19.817,18.286,10.698,8.849,21.174,16.597,31.038,22.933,5.584-4.364,10.948-9.059,16-13.994Z"/><path class="b" d="M127.997,128.914l-27.254-27.227c-6.545,6.62-12.767,13.374-18.536,20.127,7.732,9.149,16.229,18.418,25.297,27.567l20.493-20.467Z"/><path class="b" d="M223.843,221.654c-2.07,2.069-5.34,3.694-10.497,3.694-.735,0-1.519-.043-2.333-.112-13.986,6.618-33.901,5.419-56.917-3.694,6.432-3.67,12.748-7.847,18.854-12.44-1.328-.829-2.667-1.68-4.018-2.561-6.499,4.796-13.231,9.097-20.073,12.81-10.845-4.751-21.832-11.066-32.722-18.794,7.308-5.081,14.706-10.756,22.051-16.912-1.153-.958-2.31-1.939-3.467-2.921-7.478,6.237-15.003,11.964-22.425,17.059-8.71-6.421-17.193-13.676-25.265-21.606l20.471-20.485c-.528-.523-1.058-1.038-1.585-1.565s-1.045-1.06-1.57-1.59l-20.471,20.485c-7.899-8.043-15.168-16.532-21.643-25.28,5.16-7.479,10.897-15.007,17.087-22.429-.982-1.157-1.963-2.315-2.921-3.468-6.11,7.292-11.793,14.692-16.936,22.058-7.686-10.865-13.991-21.866-18.763-32.762,3.767-6.92,8.067-13.644,12.808-20.046-.88-1.35-1.731-2.688-2.559-4.016-4.548,6.023-8.725,12.329-12.44,18.83-9.101-22.969-10.298-42.858-3.692-56.85-.558-6.419,1.14-10.334,3.436-12.721C13.584,61.097,0,93.964,0,128.914s13.644,67.97,38.42,92.749c25.556,25.561,59.122,38.336,92.703,38.336s67.161-12.782,92.729-38.336h0s0,0,0,0l-.009-.009ZM143.831,221.983c-9.841,4.929-19.811,8.636-29.704,11.057-9.671-3.823-19.043-8.776-27.929-14.759,8.249-3.901,16.98-8.959,26.011-15.045,10.495,7.564,21.106,13.861,31.622,18.747ZM83.878,179.332c7.839,7.703,16.06,14.784,24.499,21.099-9.236,6.138-18.109,11.135-26.436,14.889-6.49-4.628-12.704-9.835-18.519-15.518l20.456-20.47ZM59.59,151.66c6.367,8.479,13.459,16.706,21.133,24.517l-20.456,20.47c-5.594-5.729-10.808-11.953-15.537-18.549,3.735-8.287,8.723-17.162,14.859-26.437ZM56.78,147.829c-6.084,9.071-11.13,17.803-15.012,26.015-5.979-8.882-10.933-18.257-14.757-27.933,2.429-9.93,6.136-19.912,11.055-29.742,4.9,10.559,11.185,21.183,18.713,31.66ZM26.92,59.887c-2.274,14.24.655,31.749,8.83,51.052-4.826,9.132-8.637,18.42-11.386,27.709-9.483-28.443-8.374-56.536,2.556-78.761ZM4.462,128.914c0-19.262,4.277-37.867,12.371-54.74-5.832,21.766-4.164,46.95,5.512,72.053-4.056,17.464-3.896,33.898.208,48.018-11.791-19.523-18.091-41.944-18.091-65.332ZM25.405,153.564c3.884,8.67,8.65,17.065,14.227,25.045-4.817,11.204-7.116,20.774-6.846,28.419-8.327-14.353-10.951-32.979-7.381-53.464ZM42.679,182.864c4.445,5.994,9.287,11.67,14.435,16.937l-16.957,16.968c-4.588-6.612-3.721-18.437,2.522-33.905ZM60.269,202.958c5.335,5.218,11.001,10.054,16.902,14.418-15.45,6.249-27.259,7.127-33.859,2.55l16.956-16.968ZM54.237,227.305c7.435,0,16.583-2.302,27.206-6.882,7.977,5.577,16.367,10.341,25.03,14.223-20.499,3.575-39.13.949-53.474-7.385.412.015.814.044,1.238.044ZM65.913,237.529c7.179,2.074,14.947,3.147,23.156,3.147,7.895,0,16.193-.985,24.733-2.968,15.476,5.967,30.983,8.898,45.704,8.898,9.062,0,17.817-1.126,26.089-3.315-38.013,18.056-83.216,16.137-119.682-5.761ZM121.386,235.687c9.259-2.744,18.535-6.556,27.672-11.387,15.119,6.398,29.136,9.596,41.339,9.596,3.385,0,6.629-.249,9.72-.739-22.222,10.912-50.303,12.013-78.732,2.53Z"/><path class="b" d="M51.89,80.036c.63,1.072,1.294,2.159,1.962,3.249,4.105-5.188,8.585-10.262,13.355-15.139l-26.946-26.981c-3.244,6.526.939,20.696,11.629,38.871Z"/><path class="b" d="M70.361,71.302c-5.03,5.147-9.722,10.517-13.984,16.004,6.333,9.864,14.078,20.341,22.923,31.039,5.707-6.65,11.843-13.297,18.286-19.813l-27.226-27.23Z"/><path class="b" d="M208.446,174.474c-4.147,5.23-8.629,10.312-13.415,15.208l26.951,26.955c3.501-6.9-1.241-22.113-13.536-42.164Z"/><path class="b" d="M191.864,192.825c-4.799,4.691-9.875,9.163-15.15,13.355,1.1.675,2.199,1.345,3.281,1.982,18.153,10.68,32.309,14.865,38.843,11.641l-26.974-26.978Z"/><path class="b" d="M120.593,77.052c-11.076-9.183-21.518-16.847-31.001-22.944-5.502,4.281-10.879,8.965-16.074,14.04l27.224,27.229c6.607-6.532,13.25-12.653,19.851-18.324Z"/><path class="b" d="M85.582,51.59c-15.759-9.667-28.553-14.693-36.652-14.693-2.195,0-4.035.376-5.508,1.118l26.941,26.976c4.926-4.814,10.013-9.285,15.219-13.402Z"/><path class="b" d="M151.602,105.299c-9.424-9.347-18.649-17.802-27.503-25.309-6.755,5.747-13.527,11.946-20.202,18.54l27.255,27.229,20.45-20.461Z"/><path class="b" d="M180.04,135.942c-7.499-8.848-15.949-18.068-25.286-27.486l-20.448,20.459,27.191,27.227c6.595-6.674,12.794-13.445,18.542-20.2Z"/><path class="b" d="M221.583,146.594c-4.712-10.675-11.009-21.698-18.755-32.639-5.023,7.205-10.689,14.601-16.945,22.07,8.757,10.551,16.47,20.908,22.852,30.702,4.86-6.587,9.148-13.331,12.848-20.133Z"/><path class="b" d="M227.441,208.863c6.825-14.409,5.166-34.765-3.65-56.998-3.684,6.44-7.859,12.76-12.484,18.899,1.001,1.605,1.975,3.199,2.898,4.768,9.044,15.377,12.619,25.997,13.236,33.331Z"/><path class="b" d="M205.914,170.446c-6.092-9.479-13.766-19.923-22.94-30.992-5.67,6.6-11.791,13.241-18.322,19.845l27.224,27.228c5.075-5.197,9.758-10.576,14.039-16.081Z"/></svg>