<?xml version="1.0" encoding="UTF-8"?><svg id="a" xmlns="http://www.w3.org/2000/svg" viewBox="0 0 260 260"><defs><style>.b{fill:#f02d57;stroke-width:0px;}</style></defs><path class="b" d="M130,89.456c57.121,0,103.426,18.152,103.426,40.544s-46.305,40.543-103.426,40.543-103.426-18.152-103.426-40.543,46.305-40.544,103.426-40.544M130,63c-30.878,0-60.309,4.871-82.869,13.715C6.123,92.79,0,117,0,130s6.123,37.21,47.131,53.285c22.561,8.844,51.991,13.715,82.869,13.715s60.309-4.871,82.869-13.715c41.008-16.075,47.131-40.285,47.131-53.285s-6.123-37.21-47.131-53.285c-22.561-8.844-51.991-13.715-82.869-13.715h0Z"/></svg>