<?xml version="1.0" encoding="UTF-8"?><svg id="a" xmlns="http://www.w3.org/2000/svg" viewBox="0 0 260 260"><defs><style>.b{fill:#f02d57;stroke-width:0px;}</style></defs><path class="b" d="M246.286,78.452l-.004-.007c-22.294-39.135-66.851-63.446-116.282-63.446S36.011,39.311,13.713,78.452C4.614,94.557,0,111.9,0,130s4.614,35.444,13.717,51.555c22.294,39.134,66.851,63.445,116.283,63.445s94.08-24.312,116.286-63.452c9.099-16.104,13.714-33.447,13.714-51.548s-4.614-35.444-13.714-51.548ZM255.541,127.774h-25.237c-14.593-.416-27.287-.785-37.973-1.575-.313-17.177-2.657-34.009-6.834-49.009,19.224.925,38.538,2.42,57.484,4.455,7.984,14.48,12.204,29.981,12.559,46.128ZM148.555,113.712c-7.529-6.98-11.561-18.046-13.72-37.865,14.845.037,30.292.414,45.992,1.123,4.294,14.867,6.727,31.679,7.075,48.882-20.516-1.771-32.01-5.337-39.347-12.14ZM134.403,71.393c-1.198-13.912-1.695-31.746-2.14-51.847,19.195,1.458,36.971,21.365,47.186,52.908-15.374-.674-30.5-1.03-45.046-1.06ZM125.596,71.393c-14.643.029-29.439.378-45.046,1.061,10.216-31.544,27.991-51.451,47.187-52.908-.445,20.106-.943,37.942-2.141,51.847ZM79.172,76.97c15.972-.719,31.065-1.087,45.992-1.124-2.161,19.822-6.192,30.887-13.72,37.866-7.338,6.802-18.829,10.368-39.347,12.141.348-17.205,2.782-34.017,7.075-48.882ZM111.444,146.344c7.529,6.98,11.56,18.03,13.72,37.809-14.927-.036-30.02-.405-45.994-1.124-4.293-14.801-6.725-31.611-7.073-48.879,20.515,1.808,32.008,5.389,39.347,12.193ZM125.596,188.607c1.198,13.911,1.696,31.745,2.141,51.847-19.195-1.458-36.97-21.364-47.187-52.908,15.609.683,30.404,1.032,45.046,1.061ZM134.403,188.607c14.546-.03,29.673-.387,45.045-1.06-10.217,31.544-27.991,51.45-47.186,52.908.445-20.105.943-37.942,2.14-51.847ZM180.829,183.03c-15.699.71-31.148,1.086-45.994,1.124,2.161-19.782,6.192-30.831,13.72-37.809,7.338-6.803,18.831-10.384,39.347-12.193-.348,17.268-2.78,34.078-7.073,48.879ZM240.181,76.878c-18.495-1.923-37.31-3.339-56.028-4.21-7.774-24.878-20.199-43.131-34.61-51.877,38.252,5.229,71.643,25.647,90.638,56.087ZM110.456,20.791c-14.412,8.746-26.836,26.999-34.611,51.877-18.719.871-37.534,2.287-56.028,4.21,18.996-30.441,52.388-50.858,90.639-56.087ZM17.017,81.646c18.945-2.035,38.259-3.53,57.484-4.455-4.176,14.998-6.521,31.831-6.834,49.009-10.68.79-23.376,1.159-37.972,1.575H4.459c.355-16.149,4.576-31.653,12.558-46.128ZM4.459,132.226h25.269c14.579.416,27.263.785,37.939,1.575.313,17.239,2.656,34.072,6.831,49.009-19.22-.925-38.533-2.42-57.48-4.455-7.983-14.48-12.203-29.981-12.559-46.129ZM19.817,183.123c18.497,1.923,37.313,3.339,56.029,4.209,7.775,24.877,20.199,43.131,34.611,51.877-38.253-5.229-71.647-25.648-90.639-56.086ZM149.534,239.215c14.416-8.744,26.843-26.999,34.62-51.883,18.72-.871,37.538-2.287,56.037-4.21-18.934,30.452-52.335,50.874-90.657,56.093ZM242.982,178.355c-18.946,2.035-38.259,3.53-57.48,4.455,4.174-14.937,6.518-31.769,6.831-49.009,10.673-.789,23.358-1.158,37.939-1.574h25.27c-.355,16.149-4.576,31.651-12.559,46.129Z"/></svg>