<?xml version="1.0" encoding="UTF-8"?><svg id="a" xmlns="http://www.w3.org/2000/svg" viewBox="0 0 260 260"><defs><style>.b{fill:#f02d57;stroke-width:0px;}</style></defs><path class="b" d="M127.502,232c-.51-15.759-.949-29.368-1.983-40.62-2.019-22.596-5.998-34.435-14.19-42.231-8.388-7.982-21.866-12.108-46.521-14.241-16.97-1.403-39.392-1.921-64.808-2.41v-4.995c25.427-.489,47.854-1.008,64.818-2.411,24.645-2.133,38.124-6.259,46.511-14.241,8.192-7.797,12.171-19.635,14.189-42.224,1.035-11.26,1.474-24.868,1.984-40.627h4.996c.512,15.812.952,29.397,1.983,40.62,1.974,22.598,5.934,34.435,14.126,42.231,8.388,7.981,21.885,12.108,46.584,14.242,16.955,1.401,39.382,1.92,64.809,2.41v4.995c-25.416.488-47.838,1.007-64.818,2.411-24.691,2.133-38.188,6.259-46.576,14.24-8.191,7.795-12.152,19.632-14.125,42.22-1.032,11.233-1.472,24.819-1.982,40.55l-4.998.081ZM127.502,231.839l2.498.081-2.498-.081ZM66.039,130c45.939,4.092,59.442,15.424,63.956,55.909,4.432-40.488,17.939-51.818,63.965-55.909-46.022-4.093-59.53-15.428-63.965-55.91-4.512,40.488-18.016,51.817-63.956,55.91Z"/></svg>