<?xml version="1.0" encoding="UTF-8"?><svg id="a" xmlns="http://www.w3.org/2000/svg" viewBox="0 0 260 260"><defs><style>.b{fill:#f02d57;stroke-width:0px;}</style></defs><path class="b" d="M221.373,81.515c-23.653-12.178-54.81-19.041-88.042-19.473-1.107-.025-2.216-.042-3.332-.042s-2.225.017-3.331.042c-33.231.432-64.388,7.296-88.041,19.473C13.718,94.339,0,111.558,0,130s13.718,35.661,38.626,48.485c23.653,12.178,54.81,19.041,88.041,19.473,1.107.025,2.216.042,3.331.042s2.225-.017,3.332-.042c33.231-.432,64.389-7.296,88.042-19.473,24.91-12.824,38.627-30.043,38.627-48.485s-13.718-35.661-38.627-48.485ZM229.873,127.791c-.284-6.015-1.721-11.834-4.166-17.36,17.015,5.027,27.455,11.211,29.496,17.36h-25.329ZM225.444,127.791h-29.393c-.272-8.7-2.127-16.993-5.3-24.577,11.015,1.536,20.85,3.461,29.329,5.66,3.159,5.952,5.022,12.308,5.363,18.917ZM127.787,94.909c-7.116.031-14.135.21-21.011.531,4.646-15.98,12.34-27.15,21.011-28.793v28.261ZM127.787,99.321v28.469h-25.619c.159-9.994,1.379-19.491,3.416-27.895,7.118-.346,14.529-.543,22.203-.575ZM127.787,132.209v28.469c-7.673-.032-15.084-.229-22.203-.575-2.037-8.403-3.257-17.9-3.416-27.895h25.619ZM127.787,165.091v28.261c-8.672-1.643-16.366-12.812-21.011-28.793,6.876.322,13.895.501,21.011.531ZM132.211,165.091c7.116-.031,14.136-.21,21.012-.531-4.646,15.98-12.34,27.15-21.012,28.793v-28.261ZM132.211,160.679v-28.469h25.62c-.159,9.994-1.379,19.491-3.416,27.894-7.119.346-14.53.543-22.204.575ZM132.211,127.791v-28.469c7.674.032,15.085.229,22.204.575,2.037,8.403,3.257,17.9,3.416,27.894h-25.62ZM132.211,94.909v-28.261c8.672,1.643,16.367,12.812,21.012,28.793-6.876-.322-13.896-.501-21.012-.531ZM143.413,67.951c16.914,3.883,31.227,14.938,39.774,29.905-8.064-.946-16.496-1.67-25.191-2.166-3.33-12.229-8.413-21.944-14.582-27.739ZM102.004,95.689c-8.695.496-17.128,1.221-25.191,2.166,8.546-14.967,22.859-26.022,39.773-29.905-6.169,5.794-11.252,15.509-14.582,27.739ZM100.885,100.148c-1.892,8.349-2.996,17.698-3.14,27.642h-29.375c.301-9.014,2.415-17.562,6.003-25.253,8.254-1.026,17.113-1.838,26.511-2.39ZM97.746,132.209c.144,9.945,1.247,19.293,3.14,27.642-9.399-.552-18.257-1.363-26.511-2.39-3.588-7.69-5.702-16.238-6.003-25.253h29.375ZM102.004,164.311c3.33,12.229,8.413,21.944,14.582,27.738-16.914-3.883-31.227-14.938-39.773-29.905,8.064.946,16.497,1.67,25.191,2.166ZM157.995,164.311c8.695-.496,17.128-1.221,25.191-2.166-8.546,14.967-22.859,26.022-39.773,29.905,6.169-5.794,11.252-15.509,14.582-27.739ZM159.114,159.851c1.892-8.349,2.996-17.697,3.14-27.642h29.375c-.301,9.014-2.415,17.562-6.003,25.253-8.253,1.026-17.112,1.838-26.511,2.389ZM162.254,127.791c-.144-9.945-1.247-19.293-3.14-27.642,9.399.552,18.258,1.363,26.511,2.389,3.588,7.69,5.702,16.238,6.003,25.253h-29.375ZM188.571,98.528c-6.249-12.255-16.021-22.315-27.93-28.752,24.986,5.649,45.354,18.009,56.245,33.838-8.618-2.039-18.139-3.74-28.315-5.085ZM71.428,98.528c-10.176,1.346-19.697,3.046-28.315,5.086,10.89-15.829,31.259-28.189,56.244-33.838-11.909,6.437-21.68,16.497-27.929,28.753ZM69.247,103.214c-3.172,7.584-5.028,15.877-5.3,24.577h-29.393c.341-6.609,2.204-12.965,5.363-18.917,8.479-2.199,18.314-4.124,29.329-5.66ZM30.126,127.791H4.797c2.041-6.149,12.48-12.333,29.495-17.36-2.445,5.526-3.883,11.345-4.166,17.36ZM30.126,132.209c.284,6.015,1.721,11.834,4.166,17.36-17.014-5.027-27.454-11.211-29.495-17.36h25.328ZM34.555,132.209h29.393c.272,8.7,2.127,16.993,5.3,24.577-11.015-1.536-20.851-3.461-29.329-5.66-3.159-5.952-5.022-12.308-5.363-18.917ZM71.428,161.472c6.249,12.255,16.021,22.315,27.929,28.753-24.986-5.649-45.354-18.009-56.244-33.838,8.618,2.039,18.139,3.74,28.315,5.086ZM188.571,161.472c10.176-1.346,19.696-3.046,28.315-5.085-10.891,15.829-31.259,28.189-56.245,33.838,11.909-6.437,21.681-16.497,27.93-28.752ZM190.752,156.786c3.173-7.584,5.028-15.877,5.3-24.577h29.393c-.341,6.609-2.204,12.965-5.363,18.917-8.479,2.199-18.314,4.124-29.329,5.66ZM229.873,132.209h25.329c-2.041,6.149-12.481,12.333-29.496,17.36,2.445-5.526,3.883-11.345,4.166-17.36ZM253.534,118.555c-7.209-5.996-19.327-10.382-30.507-13.396-7.886-13.626-22.062-25.113-40.079-32.803,36.287,8.579,63.19,25.685,70.586,46.199ZM77.051,72.356c-18.016,7.69-32.193,19.177-40.079,32.803-11.18,3.014-23.297,7.399-30.506,13.395,7.395-20.514,34.298-37.62,70.584-46.199ZM6.466,141.445c7.209,5.996,19.326,10.381,30.506,13.395,7.886,13.626,22.062,25.113,40.079,32.803-36.286-8.579-63.189-25.685-70.584-46.199ZM182.948,187.644c18.017-7.69,32.193-19.177,40.079-32.803,11.18-3.014,23.298-7.399,30.507-13.396-7.395,20.514-34.299,37.62-70.586,46.199Z"/></svg>