<?xml version="1.0" encoding="UTF-8"?><svg id="a" xmlns="http://www.w3.org/2000/svg" viewBox="0 0 260 260"><defs><style>.b{fill:#f02d57;stroke-width:0px;}</style></defs><path class="b" d="M181.364,168.196c-42.906,49.599-86.028,83.543-113.286,86.25-.622.036-1.244.038-1.852.036-1.238-.059-2.467-.148-3.643-.462-.393-.095-.76-.19-1.116-.308-.16-.048-.319-.107-.466-.166-.344-.119-.675-.261-.994-.403-.123-.059-.258-.119-.38-.178-7.631-4.393-8.135-12.852-5.876-25.279,54.76-25.503,148.933-139.333,157.872-193.278,10.599-5.21,22.906-10.429,31.915-5.378,20.043,15.336-11.231,78.235-62.175,139.166Z"/><path class="b" d="M245.722,23.404c-.135-.071-.282-.119-.417-.19-.628-.29-1.265-.567-1.926-.77-.454-.154-.92-.284-1.398-.403-1.515-.407-3.086-.569-4.673-.628-1.013-.027-2.014,0-3.042.059C167.093,30.961,55.237,172.765,47.987,230.434c-1.401,10.456-1.379,20.459,6.844,26.606.172.13.368.225.564.343.331.213.65.426,1.006.616-1.938-1.412-39.661-20.123-40.035-21.571C-22.409,193.381,135.96,5.913,194.98,2.32c5.531-.748,10.241-.192,13.982,1.763l36.761,19.321Z"/><path class="b" d="M37.96,133.544C2.897,92.742-8.978,55.363,6.967,35.992c16.112-19.561,57.014-16.493,106.741,8.005l-2.162,4.419C64.683,25.33,25.119,21.684,10.749,39.128c-14.101,17.131-1.962,52.929,30.926,91.2l-3.716,3.215Z"/><path class="b" d="M97.602,187.666c-2.915-2.109-5.934-4.358-8.971-6.686-3.316-2.549-6.333-4.944-9.229-7.326l3.111-3.807c2.854,2.347,5.83,4.71,9.1,7.223,2.998,2.299,5.981,4.521,8.859,6.602l-2.869,3.994Z"/><path class="b" d="M219.01,237.997c-19.674,0-45.063-7.102-73.285-21.087l2.173-4.414c47.125,23.352,86.906,27.108,101.342,9.572,14.146-17.174,1.93-53.064-31.12-91.436l3.712-3.219c35.231,40.904,47.183,78.375,31.19,97.791-7.049,8.563-18.83,12.793-34.012,12.793Z"/><path class="b" d="M177.375,91.235c-2.928-2.392-5.952-4.788-8.985-7.122-3.462-2.65-6.695-5.05-9.88-7.33l2.852-4.007c3.226,2.312,6.5,4.74,10.009,7.426,3.075,2.366,6.136,4.792,9.101,7.214l-3.097,3.818Z"/></svg>