<?xml version="1.0" encoding="UTF-8"?><svg id="a" xmlns="http://www.w3.org/2000/svg" viewBox="0 0 260 260"><defs><style>.b{fill:#f02d57;stroke-width:0px;}</style></defs><path class="b" d="M159.995,260c-.272,0-.547-.044-.819-.135-1.124-.375-4.546-1.514-13.07-32.558-3.98-14.496-9.861-38.614-16.142-73.67-6.309,34.324-12.201,57.927-16.188,72.114-8.554,30.439-11.981,31.56-13.107,31.929-.918.299-1.875.078-2.563-.59-.988-.961-3.047-2.959,2.299-29.695,2.379-11.897,6.935-32.004,15.477-63.019-15.859,27.94-26.839,45.356-33.559,55.433-15.108,22.655-17.958,22.588-19.351,22.557-.96-.02-1.792-.55-2.226-1.417-.535-1.067-2.161-4.312,13.281-31.849,7.194-12.827,19.684-33.634,39.439-62.272-29.102,20.242-50.222,33.063-63.231,40.455-27.882,15.842-31.091,14.21-32.147,13.675-.855-.434-1.377-1.265-1.398-2.222-.03-1.378-.091-4.246,22.778-19.659,10.2-6.874,27.848-18.134,56.199-34.462-31.155,8.767-51.336,13.437-63.269,15.873-26.787,5.469-28.81,3.372-29.782,2.364-.672-.697-.895-1.668-.597-2.597.371-1.155,1.502-4.668,32.084-13.46,14.304-4.113,38.127-10.191,72.757-16.678-35.27-6.633-59.544-12.81-74.12-16.98C1.623,104.234.498,100.737.129,99.589c-.296-.922-.076-1.886.59-2.578.965-1.003,2.972-3.089,30.118,2.45,12.098,2.467,32.574,7.188,64.239,16.03-28.612-16.277-46.42-27.528-56.713-34.409-23.092-15.435-23.042-18.37-23.019-19.78.017-.97.543-1.814,1.408-2.257,1.082-.554,4.37-2.244,32.626,13.611,13.235,7.426,34.73,20.344,64.294,40.796-19.908-29.22-32.469-50.466-39.689-63.554-15.442-27.992-13.769-31.279-13.219-32.36.442-.869,1.284-1.397,2.249-1.411,1.387-.031,4.302-.059,19.393,22.871,6.72,10.212,17.697,27.868,33.549,56.223-8.58-31.706-13.15-52.23-15.534-64.359-5.348-27.204-3.282-29.194-2.29-30.15.688-.663,1.645-.879,2.553-.579,1.126.372,4.55,1.505,13.136,32.554,4.01,14.5,9.942,38.639,16.305,73.749,6.221-34.395,12.055-58.044,16.01-72.26,8.483-30.5,11.915-31.635,13.043-32.008.917-.302,1.876-.084,2.569.584.994.961,3.064,2.96-2.215,29.759-2.349,11.927-6.858,32.087-15.333,63.18,15.79-28.01,26.719-45.47,33.411-55.576,15.037-22.71,17.903-22.659,19.272-22.635.958.017,1.789.543,2.226,1.406.536,1.062,2.168,4.291-13.208,31.899-7.164,12.861-19.602,33.726-39.28,62.461,29.009-20.321,50.07-33.194,63.045-40.617,27.809-15.906,31.04-14.281,32.097-13.747.858.432,1.384,1.263,1.408,2.223.034,1.382.105,4.259-22.701,19.737-10.172,6.903-27.772,18.21-56.056,34.609,31.074-8.832,51.206-13.549,63.109-16.014,26.723-5.534,28.746-3.449,29.718-2.447.673.694.899,1.664.603,2.592-.367,1.152-1.484,4.659-32.005,13.521-14.274,4.145-38.041,10.279-72.595,16.853,35.249,6.543,59.498,12.663,74.053,16.799,31.064,8.828,32.201,12.336,32.574,13.489.3.924.08,1.891-.587,2.587-.967,1.009-2.978,3.106-30.099-2.366-12.077-2.437-32.509-7.108-64.073-15.871,28.55,16.177,46.312,27.366,56.582,34.211,23.05,15.365,23.003,18.309,22.981,19.724-.015.974-.542,1.82-1.409,2.266-1.088.559-4.397,2.256-32.638-13.532-13.233-7.397-34.712-20.266-64.21-40.643,19.834,29.159,32.344,50.386,39.534,63.473,15.377,27.984,13.693,31.287,13.139,32.372-.444.872-1.288,1.4-2.256,1.413-1.411.016-4.313.059-19.335-22.835-6.689-10.192-17.61-27.818-33.372-56.129,8.503,31.678,13.025,52.172,15.38,64.28,5.284,27.161,3.217,29.143,2.224,30.097-.484.464-1.097.708-1.734.708ZM130.018,130.226l1.957,11.504c11.081,65.162,22.146,101.348,26.967,111.546-.363-9.176-4.804-37.633-23.179-103.67l-4.739-17.034,8.444,15.516c32.765,60.203,49.322,83.283,55.306,89.751-3.463-10.44-20.873-44.609-57.958-98.068l-6.501-9.371,9.307,6.554c54.071,38.076,88.571,55.956,99.048,59.494-6.471-6.082-29.698-23.014-90.473-56.69l-15.619-8.654,17.143,4.934c66.302,19.081,94.685,23.641,103.704,23.99-10.115-4.925-47.059-16.632-111.762-28.051l-11.163-1.97,11.155-2.017c63.59-11.499,99.884-23.244,109.798-28.17-8.882.368-36.845,4.986-102.101,24.209l-16.812,4.952,15.256-8.659c59.423-33.727,82.526-50.724,89.197-56.95-10.54,3.768-43.765,21.503-97.36,59.77l-9.499,6.785v-.002l-.035.024.031-.044-1.983-11.528c-11.23-65.247-22.373-101.459-27.214-111.655.379,9.184,4.878,37.678,23.423,103.806l4.778,17.039-8.48-15.513C87.767,51.896,71.148,28.751,65.117,22.214c3.547,10.509,21.058,44.673,58.185,98.116l6.53,9.4-9.337-6.582C66.437,85.035,31.943,67.055,21.395,63.431c6.543,6.131,29.837,23.125,90.566,56.916l15.572,8.666-17.104-4.948C44.183,104.902,15.738,100.241,6.636,99.841c10.212,4.956,47.181,16.717,111.825,28.287l11.172,1.999-11.174,1.988c-63.795,11.349-100.181,23.031-110.074,27.931,8.857-.328,36.87-4.858,102.387-23.972l16.842-4.914-15.296,8.624c-59.452,33.52-82.653,50.448-89.4,56.679,10.609-3.786,43.892-21.45,97.574-59.506l9.559-6.777-.033.046ZM129.14,132.344l-4.824,16.89c-18.555,64.962-23.037,92.952-23.404,101.946,4.819-9.939,15.934-45.44,27.094-109.458l2.003-11.482-6.715,9.542c-37.367,53.107-54.571,86.057-58.149,96.453,6.069-6.552,22.67-29.441,55.478-88.546l8.516-15.344ZM158.965,8.641c-4.794,9.916-15.844,45.504-26.852,109.734l-1.974,11.514,6.68-9.563c37.156-53.196,54.287-86.202,57.882-96.666-6.072,6.628-22.602,29.615-55.204,88.748l-8.481,15.384,4.784-16.92c18.443-65.227,22.836-93.265,23.164-102.232Z"/></svg>