<?xml version="1.0" encoding="UTF-8"?><svg id="a" xmlns="http://www.w3.org/2000/svg" viewBox="0 0 260 260"><defs><style>.b{fill:#f02d57;stroke-width:0px;}</style></defs><path class="b" d="M262.5,130c0-11.08-4.991-22.108-14.439-31.901-3.245-3.338-6.964-6.489-11.077-9.45.657-4.831.886-9.536.632-14.059-.77-13.296-5.476-24.056-13.989-31.98-8.352-7.774-20.177-12.253-34.208-12.954-4.873-.228-9.942-.002-15.15.626-3.23-3.893-6.671-7.406-10.32-10.465-10.575-8.837-21.998-13.317-33.949-13.317-11.788,0-23.547,4.621-34.011,13.37-3.617,3.046-7.03,6.54-10.235,10.405-5.245-.631-10.35-.853-15.255-.615-14.177.711-25.658,5.068-34.126,12.95-8.396,7.816-13.235,18.898-13.993,32.059-.242,4.501-.007,9.18.65,13.984-4.142,2.978-7.887,6.15-11.155,9.51-9.404,9.759-14.375,20.768-14.375,31.837,0,11.231,4.854,21.961,14.436,31.9,3.252,3.345,6.979,6.502,11.101,9.468-.661,4.827-.898,9.529-.656,14.053.767,13.107,5.604,24.162,13.992,31.969,8.467,7.88,19.972,12.24,34.205,12.957,1.269.059,2.55.088,3.844.088,3.687,0,7.476-.251,11.338-.718,3.223,3.892,6.656,7.408,10.296,10.474,10.43,8.707,22.167,13.309,33.943,13.309,11.949,0,23.39-4.495,34.012-13.366,3.624-3.052,7.043-6.552,10.253-10.427,3.882.47,7.691.723,11.396.723,1.296,0,2.581-.029,3.852-.088,13.976-.708,25.771-5.186,34.114-12.952,8.511-7.921,13.221-18.703,13.997-32.056.241-4.495.008-9.167-.647-13.963,4.141-2.984,7.882-6.161,11.14-9.529,9.544-9.896,14.383-20.608,14.383-31.842ZM185.525,34.566c1.229,0,2.449.028,3.652.084,12.831.641,23.564,4.659,31.043,11.62,7.538,7.017,11.712,16.642,12.403,28.604.193,3.435.085,6.985-.285,10.619-10.428-6.668-23.032-12.2-37.144-16.369-4.424-12.974-10.274-24.571-17.315-34.203,2.59-.227,5.145-.356,7.645-.356ZM199.802,130c0,8.931-.589,17.679-1.706,26.133-5.64,6.717-11.878,13.298-18.674,19.623-6.82,6.348-13.92,12.174-21.17,17.44-9.135,1.047-18.593,1.6-28.252,1.6s-19.11-.554-28.246-1.603c-7.254-5.265-14.356-11.09-21.175-17.438-6.794-6.324-13.032-12.906-18.672-19.627-1.118-8.453-1.708-17.2-1.708-26.128s.589-17.671,1.705-26.121c5.64-6.724,11.879-13.309,18.675-19.635,6.817-6.345,13.915-12.169,21.164-17.434,9.14-1.052,18.6-1.607,28.257-1.607s19.121.555,28.261,1.605c7.245,5.265,14.342,11.089,21.161,17.436,6.797,6.328,13.038,12.914,18.68,19.638,1.113,8.447,1.7,17.19,1.7,26.118ZM182.828,80.584c-4.701-4.376-9.537-8.506-14.463-12.39,7.98,1.277,15.653,2.95,22.929,4.985,2.189,6.797,3.982,13.969,5.349,21.429-4.319-4.781-8.923-9.472-13.814-14.024ZM160.133,62.006c-8.032-5.758-16.244-10.836-24.483-15.164,12.475-5.694,24.836-9.533,36.494-11.246,6.921,8.865,12.733,19.689,17.209,31.912-9.23-2.415-19.027-4.267-29.22-5.501ZM149.839,60.981c-6.499-.508-13.123-.777-19.839-.777s-13.332.269-19.828.778c6.561-4.302,13.204-8.134,19.842-11.453,6.632,3.318,13.27,7.151,19.826,11.453ZM99.873,62.008c-10.189,1.235-19.983,3.088-29.212,5.505,4.48-12.224,10.296-23.053,17.22-31.926,11.656,1.71,24.019,5.551,36.499,11.253-8.248,4.33-16.469,9.409-24.507,15.168ZM91.634,68.199c-4.927,3.883-9.762,8.012-14.461,12.385-4.888,4.55-9.49,9.238-13.807,14.018,1.368-7.453,3.163-14.621,5.354-21.416,7.273-2.036,14.941-3.709,22.915-4.987ZM57.153,101.791c-6.28,7.603-11.808,15.384-16.505,23.192-6.177-11.629-10.342-23.152-12.219-34.017,9.609-6.473,21.332-11.903,34.555-16.08-2.553,8.506-4.515,17.525-5.83,26.905ZM56.066,111.173c-.566,6.165-.867,12.451-.867,18.827s.302,12.668.869,18.836c-4.75-6.223-8.973-12.527-12.623-18.827,3.649-6.304,7.872-12.611,12.621-18.836ZM57.157,158.218c1.317,9.382,3.283,18.403,5.84,26.912-13.232-4.174-24.957-9.602-34.561-16.074,1.881-10.871,6.043-22.394,12.213-34.02,4.698,7.803,10.227,15.581,16.507,23.181ZM63.372,165.406c4.315,4.776,8.915,9.462,13.801,14.009,4.702,4.377,9.542,8.507,14.472,12.391-7.973-1.276-15.641-2.946-22.912-4.979-2.194-6.798-3.992-13.967-5.362-21.422ZM99.869,197.994c8.037,5.758,16.26,10.839,24.511,15.168-12.473,5.697-24.832,9.527-36.492,11.242-6.919-8.875-12.732-19.696-17.21-31.903,9.222,2.411,19.009,4.26,29.192,5.493ZM110.197,199.021c6.487.506,13.099.774,19.803.774s13.329-.268,19.82-.774c-6.546,4.293-13.174,8.113-19.797,11.427-6.634-3.313-13.271-7.134-19.826-11.428ZM160.131,197.997c10.189-1.231,19.98-3.079,29.203-5.488-4.474,12.202-10.279,23.014-17.189,31.877-11.662-1.721-24.02-5.546-36.489-11.233,8.237-4.326,16.448-9.403,24.475-15.155ZM168.349,191.813c4.933-3.886,9.774-8.019,14.479-12.398,4.888-4.55,9.49-9.237,13.807-14.013-1.369,7.461-3.167,14.635-5.36,21.437-7.274,2.032-14.946,3.7-22.926,4.975ZM202.847,158.219c6.285-7.603,11.817-15.38,16.516-23.182,6.177,11.631,10.341,23.156,12.216,34.022-9.598,6.477-21.327,11.907-34.568,16.082,2.556-8.511,4.52-17.536,5.836-26.922ZM203.933,148.846c.567-6.171.869-12.464.869-18.846s-.3-12.665-.865-18.829c4.754,6.229,8.979,12.538,12.631,18.844-3.652,6.3-7.879,12.606-12.635,18.832ZM202.853,101.792c-1.313-9.385-3.273-18.407-5.824-26.914,13.232,4.177,24.957,9.608,34.558,16.083-1.871,10.865-6.036,22.391-12.22,34.026-4.699-7.808-10.23-15.59-16.514-23.195ZM99.203,23.7c9.547-7.981,20.196-12.2,30.797-12.2,10.748,0,21.092,4.089,30.74,12.152,2.681,2.247,5.241,4.762,7.688,7.497-12.35,2.172-25.366,6.543-38.415,12.844-13.054-6.308-26.07-10.682-38.421-12.852,2.423-2.71,4.958-5.207,7.611-7.441ZM27.372,74.947c.683-11.84,4.973-21.756,12.407-28.677,7.582-7.057,18.002-10.965,30.966-11.616,1.257-.061,2.525-.091,3.809-.091,2.483,0,5.019.127,7.59.352-7.044,9.641-12.899,21.243-17.327,34.217-14.105,4.17-26.708,9.702-37.144,16.371-.371-3.612-.484-7.14-.301-10.555ZM15.528,158.423c-8.645-8.968-13.028-18.531-13.028-28.423,0-9.749,4.486-19.558,12.967-28.359,2.539-2.611,5.387-5.102,8.494-7.475,2.32,11.529,7.005,23.672,13.768,35.845-6.755,12.168-11.437,24.311-13.759,35.844-3.087-2.36-5.918-4.836-8.441-7.432ZM70.82,225.353c-13.016-.656-23.46-4.566-31.041-11.623-7.427-6.913-11.717-16.803-12.406-28.588-.184-3.437-.069-6.988.306-10.622,10.432,6.667,23.039,12.197,37.154,16.365,4.428,12.959,10.281,24.554,17.322,34.196-3.877.341-7.666.445-11.335.273ZM160.799,236.303c-9.69,8.093-20.053,12.197-30.799,12.197-10.59,0-21.22-4.2-30.73-12.14-2.676-2.254-5.232-4.773-7.674-7.509,12.354-2.174,25.369-6.557,38.417-12.86,13.043,6.295,26.058,10.674,38.417,12.849-2.429,2.719-4.97,5.223-7.63,7.463ZM232.632,185.055c-.699,12.013-4.875,21.661-12.411,28.675-7.471,6.954-18.176,10.972-30.95,11.619-3.688.169-7.498.062-11.396-.283,7.032-9.631,12.879-21.217,17.302-34.172,14.123-4.167,26.73-9.698,37.156-16.367.369,3.603.482,7.123.299,10.53ZM236.046,165.853c-2.317-11.527-7-23.67-13.761-35.842,6.768-12.176,11.454-24.319,13.769-35.844,3.077,2.354,5.899,4.823,8.415,7.411,8.525,8.835,13.031,18.664,13.031,28.422,0,9.894-4.368,19.439-12.979,28.368-2.53,2.615-5.372,5.109-8.474,7.484Z"/></svg>