<?xml version="1.0" encoding="UTF-8"?><svg id="a" xmlns="http://www.w3.org/2000/svg" viewBox="0 0 2000 180"><defs><style>.b{fill:#05010b;stroke-width:0px;}</style></defs><path class="b" d="M92.996,15.034H2.679c-1.481,0-2.679,1.198-2.679,2.679v154.957c0,1.481,1.198,2.679,2.679,2.679h90.317c62.553,0,101.408-30.713,101.408-80.155S155.549,15.034,92.996,15.034ZM59.369,61.565h29.198c28.827,0,45.359,12.258,45.359,33.629s-16.532,33.624-45.359,33.624h-29.198V61.565Z"/><path class="b" d="M318.181,93.01l66.152-73.505c.709-.787.887-1.915.458-2.883-.432-.965-1.392-1.588-2.448-1.588h-60.656c-.782,0-1.525.343-2.035.936l-33.825,39.465-33.825-39.465c-.51-.594-1.253-.936-2.035-.936h-64.195c-1.054,0-2.012.617-2.443,1.58-.432.96-.259,2.087.439,2.875l65.945,74.384-67.724,77.029c-.693.79-.863,1.915-.429,2.872.434.96,1.389,1.575,2.441,1.575h60.431c.785,0,1.528-.343,2.035-.939l35.819-41.888,35.819,41.888c.507.596,1.25.939,2.035.939h63.976c1.049,0,2.004-.615,2.438-1.57.437-.957.269-2.08-.421-2.87l-67.949-77.9Z"/><path class="b" d="M607.682,15.034h-151.635c-1.481,0-2.679,1.198-2.679,2.679v154.957c0,1.481,1.198,2.679,2.679,2.679h26.564c1.478,0,2.679-1.198,2.679-2.679v-59.526h103.135c1.481,0,2.679-1.198,2.679-2.679v-23.684c0-1.481-1.198-2.679-2.679-2.679h-103.135v-40.247h122.393c1.481,0,2.679-1.198,2.679-2.679v-23.464c0-1.481-1.198-2.679-2.679-2.679Z"/><path class="b" d="M693.37,44.034c-48.213,0-78.164,26.135-78.164,68.206,0,41.796,29.951,67.761,78.164,67.761s78.164-25.965,78.164-67.761c0-42.071-29.951-68.206-78.164-68.206ZM693.37,152.947c-29.651,0-47.349-15.219-47.349-40.708,0-25.769,17.699-41.152,47.349-41.152s47.572,15.384,47.572,41.152c0,25.489-17.785,40.708-47.572,40.708Z"/><path class="b" d="M936,48.685h-25.899c-1.481,0-2.679,1.198-2.679,2.679v73.934c-9.673,18.094-25.573,27.649-46.021,27.649-22.313,0-33.627-11.463-33.627-34.069V51.363c0-1.481-1.198-2.679-2.679-2.679h-25.677c-1.481,0-2.679,1.198-2.679,2.679v69.289c0,37.022,21.691,59.123,58.019,59.123,21.913,0,40.645-8.028,52.662-22.3v15.195c0,1.481,1.198,2.679,2.679,2.679h25.899c1.478,0,2.679-1.198,2.679-2.679V51.363c0-1.481-1.201-2.679-2.679-2.679Z"/><path class="b" d="M1057.105,44.253c-21.913,0-40.645,8.031-52.665,22.305v-15.195c0-1.481-1.201-2.679-2.679-2.679h-25.899c-1.481,0-2.679,1.198-2.679,2.679v121.307c0,1.481,1.198,2.679,2.679,2.679h25.899c1.478,0,2.679-1.198,2.679-2.679v-73.934c9.676-18.094,25.575-27.649,46.023-27.649,22.311,0,33.624,11.463,33.624,34.069v67.515c0,1.481,1.201,2.679,2.679,2.679h25.68c1.481,0,2.679-1.198,2.679-2.679v-69.289c0-37.025-21.691-59.129-58.019-59.129Z"/><path class="b" d="M1290.222,6.182h-25.899c-1.479,0-2.679,1.198-2.679,2.679v56.494c-12.305-13.5-31.215-21.102-53.107-21.102-40.791,0-68.2,27.323-68.2,67.986,0,40.396,27.409,67.536,68.2,67.536,21.848,0,40.759-7.547,53.107-20.95v13.846c0,1.481,1.199,2.679,2.679,2.679h25.899c1.479,0,2.679-1.198,2.679-2.679V8.861c0-1.481-1.199-2.679-2.679-2.679ZM1215.178,152.502c-28.535,0-44.25-14.298-44.25-40.263,0-26.488,15.301-40.488,44.25-40.488,20.786,0,36.414,7.706,46.465,22.91v34.712c-10.144,15.35-25.773,23.129-46.465,23.129Z"/><path class="b" d="M1468.879,48.685h-25.899c-1.479,0-2.679,1.198-2.679,2.679v14.078c-12.462-13.555-31.38-21.188-53.107-21.188-40.926,0-68.423,27.323-68.423,67.986,0,40.396,27.496,67.536,68.423,67.536,21.679,0,40.601-7.581,53.107-21.037v13.932c0,1.481,1.199,2.679,2.679,2.679h25.899c1.479,0,2.679-1.198,2.679-2.679V51.363c0-1.481-1.199-2.679-2.679-2.679ZM1393.616,152.502c-28.536,0-44.252-14.298-44.252-40.263,0-26.109,15.716-40.488,44.252-40.488,21.08,0,36.287,7.494,46.463,22.91v34.712c-10.269,15.562-25.476,23.129-46.463,23.129Z"/><path class="b" d="M1592.262,146.92c-.276-.722-.851-1.29-1.576-1.556-.725-.264-1.532-.207-2.209.162-6.322,3.45-13.98,6.976-22.845,6.976-9.834,0-20.343-4.588-20.343-17.463v-60.41h50.227c1.479,0,2.679-1.198,2.679-2.679v-20.587c0-1.481-1.199-2.679-2.679-2.679h-50.227v-25.436c0-1.481-1.199-2.679-2.679-2.679h-25.899c-1.479,0-2.679,1.198-2.679,2.679v25.436h-20.786c-1.479,0-2.679,1.198-2.679,2.679v20.587c0,1.481,1.199,2.679,2.679,2.679h20.786v64.617c0,24.62,17.734,40.53,45.181,40.53,13.533,0,27.71-4.28,38.895-11.74,1.041-.696,1.464-2.017,1.016-3.186l-6.861-17.929Z"/><path class="b" d="M1633.821,3.305c-11.172,0-19.281,7.178-19.281,17.066,0,9.569,8.469,17.066,19.281,17.066s19.059-7.337,19.059-17.066c0-9.888-8.015-17.066-19.059-17.066Z"/><rect class="b" x="1618.523" y="48.685" width="31.037" height="126.664" rx="2.679" ry="2.679"/><path class="b" d="M1753.804,44.034c-48.214,0-78.164,26.135-78.164,68.206,0,41.796,29.95,67.761,78.164,67.761s78.164-25.965,78.164-67.761c0-42.071-29.95-68.206-78.164-68.206ZM1753.804,152.947c-29.649,0-47.349-15.219-47.349-40.708,0-25.769,17.7-41.152,47.349-41.152s47.572,15.384,47.572,41.152c0,25.489-17.784,40.708-47.572,40.708Z"/><path class="b" d="M1941.981,44.253c-21.913,0-40.646,8.031-52.665,22.305v-15.195c0-1.481-1.199-2.679-2.679-2.679h-25.899c-1.479,0-2.679,1.198-2.679,2.679v121.307c0,1.481,1.199,2.679,2.679,2.679h25.899c1.479,0,2.679-1.198,2.679-2.679v-73.934c9.676-18.094,25.576-27.649,46.023-27.649,22.312,0,33.624,11.463,33.624,34.069v67.515c0,1.481,1.199,2.679,2.679,2.679h25.68c1.479,0,2.679-1.198,2.679-2.679v-69.289c0-37.025-21.689-59.129-58.019-59.129Z"/></svg>