<?xml version="1.0" encoding="UTF-8"?><svg id="a" xmlns="http://www.w3.org/2000/svg" viewBox="0 0 1440 646"><defs><style>.b{fill:#fdf6f3;}.b,.c{stroke-width:0px;}.c{fill:#f02d57;}</style></defs><path class="b" d="M66.957,522.842H1.929c-1.066,0-1.929.863-1.929,1.929v111.569c0,1.066.863,1.929,1.929,1.929h65.028c45.038,0,73.014-22.113,73.014-57.711s-27.976-57.715-73.014-57.715ZM42.746,556.344h21.023c20.755,0,32.658,8.826,32.658,24.213s-11.903,24.209-32.658,24.209h-21.023v-48.422Z"/><path class="b" d="M229.09,578.985l47.63-52.924c.51-.567.638-1.379.33-2.076-.311-.695-1.002-1.143-1.763-1.143h-43.672c-.563,0-1.098.247-1.465.674l-24.354,28.415-24.354-28.415c-.367-.428-.902-.674-1.465-.674h-46.221c-.759,0-1.448.444-1.759,1.138-.311.691-.186,1.503.316,2.07l47.481,53.557-48.761,55.461c-.499.569-.622,1.379-.309,2.068.313.691,1,1.134,1.757,1.134h43.511c.565,0,1.1-.247,1.465-.676l25.79-30.159,25.79,30.159c.365.429.9.676,1.465.676h46.063c.755,0,1.443-.443,1.755-1.13.315-.689.194-1.497-.303-2.066l-48.923-56.088Z"/><path class="b" d="M437.531,522.842h-109.177c-1.066,0-1.929.863-1.929,1.929v111.569c0,1.066.863,1.929,1.929,1.929h19.126c1.064,0,1.929-.863,1.929-1.929v-42.859h74.257c1.066,0,1.929-.863,1.929-1.929v-17.052c0-1.066-.863-1.929-1.929-1.929h-74.257v-28.978h88.123c1.066,0,1.929-.863,1.929-1.929v-16.894c0-1.066-.863-1.929-1.929-1.929Z"/><path class="b" d="M499.226,543.722c-34.713,0-56.278,18.817-56.278,49.108,0,30.093,21.565,48.788,56.278,48.788s56.278-18.695,56.278-48.788c0-30.291-21.565-49.108-56.278-49.108ZM499.226,622.139c-21.348,0-34.092-10.958-34.092-29.31,0-18.553,12.743-29.63,34.092-29.63s34.252,11.076,34.252,29.63c0,18.352-12.805,29.31-34.252,29.31Z"/><path class="b" d="M673.92,547.07h-18.648c-1.066,0-1.929.863-1.929,1.929v53.233c-6.965,13.028-18.412,19.908-33.135,19.908-16.065,0-24.211-8.253-24.211-24.53v-48.611c0-1.066-.863-1.929-1.929-1.929h-18.488c-1.066,0-1.929.863-1.929,1.929v49.888c0,26.656,15.617,42.569,41.774,42.569,15.777,0,29.264-5.78,37.917-16.056v10.941c0,1.066.863,1.929,1.929,1.929h18.648c1.064,0,1.929-.863,1.929-1.929v-87.341c0-1.066-.864-1.929-1.929-1.929Z"/><path class="b" d="M761.116,543.88c-15.777,0-29.264,5.782-37.919,16.06v-10.941c0-1.066-.864-1.929-1.929-1.929h-18.648c-1.066,0-1.929.863-1.929,1.929v87.341c0,1.066.863,1.929,1.929,1.929h18.648c1.064,0,1.929-.863,1.929-1.929v-53.233c6.967-13.028,18.414-19.908,33.137-19.908,16.064,0,24.209,8.253,24.209,24.53v48.611c0,1.066.864,1.929,1.929,1.929h18.489c1.066,0,1.929-.863,1.929-1.929v-49.888c0-26.658-15.617-42.573-41.774-42.573Z"/><path class="b" d="M928.96,516.469h-18.648c-1.065,0-1.929.863-1.929,1.929v40.676c-8.86-9.72-22.475-15.193-38.237-15.193-29.37,0-49.104,19.672-49.104,48.95,0,29.085,19.734,48.626,49.104,48.626,15.73,0,29.346-5.434,38.237-15.084v9.969c0,1.066.864,1.929,1.929,1.929h18.648c1.065,0,1.929-.863,1.929-1.929v-117.943c0-1.066-.864-1.929-1.929-1.929ZM874.928,621.819c-20.545,0-31.86-10.295-31.86-28.989,0-19.071,11.017-29.151,31.86-29.151,14.966,0,26.218,5.549,33.455,16.495v24.993c-7.304,11.052-18.556,16.653-33.455,16.653Z"/><path class="b" d="M1057.593,547.07h-18.648c-1.065,0-1.929.863-1.929,1.929v10.137c-8.973-9.76-22.593-15.256-38.237-15.256-29.467,0-49.264,19.672-49.264,48.95,0,29.085,19.797,48.626,49.264,48.626,15.609,0,29.232-5.458,38.237-15.146v10.031c0,1.066.864,1.929,1.929,1.929h18.648c1.065,0,1.929-.863,1.929-1.929v-87.341c0-1.066-.864-1.929-1.929-1.929ZM1003.403,621.819c-20.546,0-31.862-10.295-31.862-28.989,0-18.798,11.316-29.151,31.862-29.151,15.177,0,26.127,5.396,33.453,16.495v24.993c-7.393,11.204-18.343,16.653-33.453,16.653Z"/><path class="b" d="M1146.428,617.8c-.199-.52-.613-.929-1.135-1.121-.522-.19-1.103-.149-1.591.117-4.552,2.484-10.066,5.023-16.449,5.023-7.081,0-14.647-3.303-14.647-12.574v-43.495h36.163c1.065,0,1.929-.863,1.929-1.929v-14.822c0-1.066-.864-1.929-1.929-1.929h-36.163v-18.314c0-1.066-.864-1.929-1.929-1.929h-18.648c-1.065,0-1.929.863-1.929,1.929v18.314h-14.966c-1.065,0-1.929.863-1.929,1.929v14.822c0,1.066.864,1.929,1.929,1.929h14.966v46.524c0,17.727,12.769,29.182,32.53,29.182,9.744,0,19.951-3.081,28.004-8.453.75-.501,1.054-1.452.732-2.294l-4.94-12.909Z"/><path class="b" d="M1176.351,514.397c-8.044,0-13.883,5.168-13.883,12.287,0,6.89,6.098,12.287,13.883,12.287s13.723-5.283,13.723-12.287c0-7.119-5.771-12.287-13.723-12.287Z"/><rect class="b" x="1165.337" y="547.07" width="22.347" height="91.198" rx="1.929" ry="1.929"/><path class="b" d="M1262.739,543.722c-34.714,0-56.278,18.817-56.278,49.108,0,30.093,21.564,48.788,56.278,48.788s56.278-18.695,56.278-48.788c0-30.291-21.564-49.108-56.278-49.108ZM1262.739,622.139c-21.347,0-34.092-10.958-34.092-29.31,0-18.553,12.744-29.63,34.092-29.63s34.252,11.076,34.252,29.63c0,18.352-12.804,29.31-34.252,29.31Z"/><path class="b" d="M1398.226,543.88c-15.777,0-29.265,5.782-37.919,16.06v-10.941c0-1.066-.864-1.929-1.929-1.929h-18.648c-1.065,0-1.929.863-1.929,1.929v87.341c0,1.066.864,1.929,1.929,1.929h18.648c1.065,0,1.929-.863,1.929-1.929v-53.233c6.967-13.028,18.415-19.908,33.137-19.908,16.065,0,24.209,8.253,24.209,24.53v48.611c0,1.066.864,1.929,1.929,1.929h18.489c1.065,0,1.929-.863,1.929-1.929v-49.888c0-26.658-15.616-42.573-41.774-42.573Z"/><path class="c" d="M736.949,396.991l101.323-184.794c1.597-2.913,1.597-6.44,0-9.353l-101.323-184.794c-3.471-8.12,5.101-16.191,13.725-12.923l196.709,103.085c2.828,1.482,6.203,1.482,9.03,0L1153.122,5.127c8.624-3.268,17.196,4.803,13.725,12.923l-101.323,184.794c-1.597,2.913-1.597,6.44,0,9.353l101.323,184.794c3.471,8.12-5.101,16.191-13.725,12.923l-196.709-103.085c-2.828-1.482-6.203-1.482-9.03,0l-196.709,103.084c-8.624,3.268-17.196-4.803-13.725-12.923Z"/><path class="c" d="M497.027,4.514c-105.605,0-158.324,0-184.642,25.376-26.318,25.376-26.235,76.127-26.235,177.631s-.083,152.255,26.235,177.631c26.318,25.376,79.037,25.376,184.642,25.376,63.204,0,124.925-19.228,170.846-54.218,45.921-34.99,76.04-85.741,76.04-148.789s-30.12-113.799-76.04-148.789c-45.921-34.99-107.642-54.218-170.846-54.218Z"/></svg>