<?xml version="1.0" encoding="UTF-8"?><svg id="a" xmlns="http://www.w3.org/2000/svg" viewBox="0 0 1200 554"><defs><style>.b{fill:#fdf6f3;stroke-width:0px;}</style></defs><path class="b" d="M613.688,534.933l137.935-251.567c2.174-3.966,2.174-8.767,0-12.733L613.688,19.067c-4.725-11.054,6.944-22.042,18.684-17.593l267.787,140.333c3.849,2.017,8.444,2.017,12.293,0L1180.24,1.474c11.74-4.449,23.409,6.538,18.684,17.593l-137.935,251.567c-2.174,3.966-2.174,8.767,0,12.733l137.935,251.567c4.725,11.054-6.944,22.042-18.684,17.593l-267.787-140.333c-3.849-2.017-8.444-2.017-12.293,0l-267.787,140.333c-11.74,4.449-23.409-6.538-18.684-17.593Z"/><path class="b" d="M287.075.64C143.311.64,71.542.64,35.714,35.185-.113,69.73,0,138.82,0,277s-.113,207.27,35.714,241.815c35.828,34.545,107.596,34.545,251.36,34.545,86.042,0,170.065-26.176,232.579-73.809,62.513-47.633,103.516-116.723,103.516-202.551s-41.003-154.918-103.516-202.551C457.14,26.816,373.116.64,287.075.64Z"/></svg>