<svg xmlns="http://www.w3.org/2000/svg" viewBox="0 0 912.51 324.72"><defs><style>.cls-1{fill:#e0ff00;}</style></defs><g id="Layer_2" data-name="Layer 2"><g id="Layer_1-2" data-name="Layer 1"><path class="cls-1" d="M365.29,82.18H309.61V1.05h55.68V17.43H326.23V32.66h34.06V48.35H326.23V65.79h39.06Z"/><path class="cls-1" d="M457.58,68.11c-8.95,10.58-14.88,15.11-29.06,15.11-24.06,0-35.34-19.76-35.34-41.61S404.22,0,428.4,0C441.19,0,449,4.42,457,14.06L445.26,25.57c-4.77-5.35-9.19-9.18-16.86-9.18-13.95,0-18.25,13.6-18.25,25.22s4.3,25.22,18.25,25.22c7.91,0,12.67-4.18,17.44-10.11Z"/><path class="cls-1" d="M550.21,82.18H533.59V48.35H504.65V82.18H488V1.05h16.62V32.66h28.94V1.05h16.62Z"/><path class="cls-1" d="M641.92,82.18H586.24V1.05h55.68V17.43H602.86V32.66h34.06V48.35H602.86V65.79h39.06Z"/><path class="cls-1" d="M726.54,82.18H675.63V1.05h16.5V66.14h34.41Z"/><path class="cls-1" d="M786.4,83.11c-24.53,0-33.94-19.88-33.94-41.5S761.87.12,786.4.12,820.34,20,820.34,41.61,810.92,83.11,786.4,83.11Zm0-66.61c-14.65,0-17.21,13.37-17.21,25.11s2.56,25.11,17.21,25.11,17.2-13.37,17.2-25.11S801.16,16.5,786.4,16.5Z"/><path class="cls-1" d="M912.51,82.18H899.14L869.5,35.92V82.18H852.88V1.05h13.48l29.53,46.26V1.05h16.62Z"/><path class="cls-1" d="M351.8,168.41a25.6,25.6,0,0,1,3.26,4.3l19.29,30.22H355.06l-16.28-27.2c-2.44-4.19-3.48-5.47-8.48-5.47h-4.07v32.67H309.61V121.8h29.76c15.8,0,28.12,7.55,28.12,24.64A22.9,22.9,0,0,1,351.8,168.41Zm-12.32-30.57H326.23v17.78h13.25c6.39,0,11.39-1.63,11.39-9.07S345.64,137.84,339.48,137.84Z"/><path class="cls-1" d="M421.43,202.93H404.8V121.8h16.63Z"/><path class="cls-1" d="M488.84,204.09c-17.2,0-28.59-8.14-32.78-24.64l15.69-3.14c2.33,8.37,8.37,12,17.09,12,6,0,13.83-3.14,13.83-10.23,0-14.64-44.05-4.53-44.05-33.82,0-15.69,14.06-23.36,28-23.36,14.76,0,23.95,5.58,30.34,18.59l-14.3,6.63c-3.72-6.74-7.9-9.77-16-9.77-4.53,0-11.39,2.1-11.39,7.91,0,12.32,44,4.18,44,33.82C519.29,194.79,504.18,204.09,488.84,204.09Z"/><path class="cls-1" d="M553.58,202.93V121.8H570.2v81.13Zm36.38-41,28.48,41H598.91l-26.85-41,25.11-40.1h18.25Z"/><path class="cls-1" d="M727.58,171.27H709v18.6H694.8v-18.6H676.2V157.09h18.6V138.5H709v18.59h18.6Z"/><path class="cls-1" d="M370.52,309.61c-8.95,10.58-14.88,15.11-29.06,15.11-24.06,0-35.34-19.76-35.34-41.61s11.05-41.61,35.22-41.61c12.79,0,20.57,4.42,28.6,14.06L358.2,267.07c-4.77-5.34-9.19-9.18-16.86-9.18-13.95,0-18.25,13.6-18.25,25.22s4.3,25.22,18.25,25.22c7.91,0,12.67-4.18,17.44-10.11Z"/><path class="cls-1" d="M464.43,242.55l-26.85,54.39v26.74H421v-27l-27-54.16h18.6l16.74,35.56L446,242.55Z"/><path class="cls-1" d="M525.1,323.68H493.49V242.55h29.75c15.58,0,28,6.74,28,23.94A20.39,20.39,0,0,1,545.45,281c5.92,4,8.6,10.93,8.6,17.9C554.05,316.94,541.49,323.68,525.1,323.68Zm-1.62-65.33H510.11v17h13.37c6.27,0,11.5-1.16,11.5-8.71C535,259.28,529.64,258.35,523.48,258.35ZM525.1,290h-15v18h15c6.63,0,12.32-.93,12.32-8.95S531.73,290,525.1,290Z"/><path class="cls-1" d="M642.27,323.68H586.59V242.55h55.68v16.38H603.21v15.23h34.06v15.69H603.21v17.44h39.06Z"/><path class="cls-1" d="M718.17,289.16a26.11,26.11,0,0,1,3.25,4.3l19.3,30.22h-19.3l-16.27-27.2c-2.44-4.19-3.49-5.46-8.49-5.46h-4.07v32.66H676V242.55h29.76c15.81,0,28.13,7.55,28.13,24.64A22.9,22.9,0,0,1,718.17,289.16Zm-12.32-30.57H692.59v17.78h13.26c6.39,0,11.39-1.63,11.39-9.07S712,258.59,705.85,258.59Z"/><polygon class="cls-1" points="151.71 16.59 223.61 16.59 232.58 0.95 88.85 0.95 70.9 32.22 142.73 32.22 151.71 16.59"/><polygon class="cls-1" points="80.81 140.11 152.71 140.11 161.68 124.48 17.95 124.48 0 155.74 71.83 155.74 80.81 140.11"/><polygon class="cls-1" points="116.26 78.35 188.16 78.35 197.13 62.71 53.4 62.71 35.45 93.98 107.28 93.98 116.26 78.35"/></g></g></svg>