<svg xmlns="http://www.w3.org/2000/svg" viewBox="0 0 582.78 312.08"><defs><style>.cls-1{fill:#003;}</style></defs><g id="Layer_2" data-name="Layer 2"><g id="Layer_1-2" data-name="Layer 1"><path class="cls-1" d="M56.86,79H3.35V1H56.86V16.76H19.33V31.39H52.06V46.47H19.33V63.23H56.86Z"/><path class="cls-1" d="M145.56,65.46C137,75.63,131.26,80,117.63,80c-23.12,0-34-19-34-40S94.28,0,117.52,0C129.81,0,137.29,4.25,145,13.52L133.72,24.58c-4.58-5.14-8.83-8.83-16.2-8.83C104.11,15.75,100,28.82,100,40s4.13,24.24,17.54,24.24c7.6,0,12.18-4,16.76-9.72Z"/><path class="cls-1" d="M234.59,79h-16V46.47H190.8V79h-16V1h16V31.39h27.81V1h16Z"/><path class="cls-1" d="M322.72,79h-53.5V1h53.5V16.76H285.19V31.39h32.73V46.47H285.19V63.23h37.53Z"/><path class="cls-1" d="M404.05,79H355.12V1H371V63.56h33.07Z"/><path class="cls-1" d="M461.58,79.87C438,79.87,429,60.77,429,40S438,.11,461.58.11,494.2,19.21,494.2,40,485.15,79.87,461.58,79.87Zm0-64c-14.08,0-16.53,12.85-16.53,24.13s2.45,24.13,16.53,24.13S478.11,51.27,478.11,40,475.77,15.86,461.58,15.86Z"/><path class="cls-1" d="M582.78,79H569.93L541.45,34.52V79h-16V1h13l28.38,44.47V1h16Z"/><path class="cls-1" d="M43.9,161.85A24.39,24.39,0,0,1,47,166L65.57,195H47L31.39,168.89c-2.35-4-3.35-5.25-8.15-5.25H19.33V195h-16v-78H32c15.19,0,27,7.27,27,23.69A22,22,0,0,1,43.9,161.85ZM32.06,132.47H19.33v17.09H32.06C38.2,149.56,43,148,43,140.85S38,132.47,32.06,132.47Z"/><path class="cls-1" d="M110.81,195h-16v-78h16Z"/><path class="cls-1" d="M175.6,196.15c-16.53,0-27.48-7.82-31.5-23.69l15.08-3c2.24,8,8,11.5,16.42,11.5,5.81,0,13.3-3,13.3-9.83,0-14.07-42.34-4.35-42.34-32.5,0-15.09,13.52-22.46,26.92-22.46,14.19,0,23,5.36,29.16,17.88L188.9,140.4c-3.58-6.48-7.6-9.38-15.42-9.38-4.36,0-10.95,2-10.95,7.6,0,11.84,42.34,4,42.34,32.5C204.87,187.21,190.35,196.15,175.6,196.15Z"/><path class="cls-1" d="M237.82,195v-78h16v78Zm35-39.44L300.16,195H281.39l-25.8-39.44,24.13-38.54h17.53Z"/><path class="cls-1" d="M405.05,164.61H387.18v17.87H373.55V164.61H355.68V151h17.87V133.11h13.63V151h17.87Z"/><path class="cls-1" d="M61.89,297.56c-8.6,10.17-14.3,14.52-27.93,14.52-23.12,0-34-19-34-40s10.61-40,33.85-40c12.29,0,19.77,4.25,27.48,13.52L50.05,256.68c-4.58-5.14-8.83-8.83-16.2-8.83-13.41,0-17.54,13.07-17.54,24.24s4.13,24.24,17.54,24.24c7.59,0,12.17-4,16.75-9.72Z"/><path class="cls-1" d="M152.15,233.11l-25.81,52.28v25.69h-16V285.16L84.45,233.11h17.87l16.09,34.18,16-34.18Z"/><path class="cls-1" d="M210.46,311.08H180.07v-78h28.6c15,0,26.92,6.47,26.92,23a19.59,19.59,0,0,1-5.58,14c5.69,3.8,8.26,10.5,8.26,17.21C238.27,304.6,226.21,311.08,210.46,311.08Zm-1.57-62.78H196.05v16.31h12.84c6,0,11.06-1.12,11.06-8.38C220,249.19,214.81,248.3,208.89,248.3Zm1.57,30.38H196.05V296h14.41c6.37,0,11.84-.9,11.84-8.6S216.83,278.68,210.46,278.68Z"/><path class="cls-1" d="M323.06,311.08H269.55v-78h53.51v15.75H285.53v14.63h32.73v15.08H285.53v16.76h37.53Z"/><path class="cls-1" d="M396,277.9a24.39,24.39,0,0,1,3.13,4.13l18.55,29.05H399.13l-15.64-26.14c-2.34-4-3.35-5.25-8.15-5.25h-3.91v31.39h-16v-78h28.6c15.19,0,27,7.26,27,23.68A22,22,0,0,1,396,277.9Zm-11.84-29.38H371.43v17.09h12.73c6.15,0,10.95-1.56,10.95-8.71S390.08,248.52,384.16,248.52Z"/></g></g></svg>