<?xml version="1.0" encoding="UTF-8"?><svg id="b" xmlns="http://www.w3.org/2000/svg" viewBox="0 0 1470.84 615.61"><defs><style>.d{fill:#161615;}.d,.e{stroke-width:0px;}.e{fill:#00dbff;}</style></defs><g id="c"><path class="d" d="m0,0h100.91c28.89,0,44.64,4.51,58.14,16.13,13.51,12.38,21.01,31.88,21.01,54.39,0,26.64-8.63,44.27-28.89,57.39l3.75,2.26c12,8.25,15,11.25,19.51,19.13,7.13,12,10.5,27.38,10.5,45.01,0,26.64-8.25,46.89-24.01,59.27-13.13,10.5-27.76,14.26-55.14,14.26H0V0Zm97.91,114.41c14.63,0,22.88-2.25,30.38-8.63,7.13-6,12-19.13,12-32.63,0-27.76-13.5-40.89-42.39-40.89h-58.14v82.15h58.14Zm5.25,121.17c28.51,0,42.01-14.25,42.01-44.27s-13.88-44.64-42.01-44.64h-63.39v88.9h63.39Z"/><path class="d" d="m255.47,0v200.32c0,27.76,7.5,36.38,32.64,36.38h8.25v31.14h-9.75c-55.52,0-69.4-14.26-69.4-71.28V0h38.26Z"/><path class="d" d="m354.09,77.28v105.41c0,40.14,10.13,56.27,35.64,56.27,27.01,0,37.51-17.63,37.51-64.15v-97.53h38.26v190.56h-27.76l-4.13-19.51c-10.5,16.5-25.51,23.26-50.27,23.26-32.26,0-53.27-12.38-61.89-36.76-3.75-10.5-5.63-25.51-5.63-48.39v-109.16h38.26Z"/><path class="d" d="m537.99,188.31c0,34.51,16.51,52.89,47.27,52.89,19.13,0,31.13-5.63,41.26-19.13l28.51,16.88c-15.76,23.25-37.14,32.63-73.52,32.63-56.65,0-81.78-27.76-81.78-90.4v-14.63c0-65.27,23.63-93.03,79.53-93.03s79.53,27.76,79.53,93.03v15h-120.79v6.75Zm84.41-34.13v-3.76c0-30.76-14.63-47.27-42.02-47.27-17.25,0-28.13,5.25-34.88,16.88-4.5,7.5-7.5,19.51-7.5,30.76v3.38h84.41Z"/><path class="d" d="m733.81,33.01h-75.02V0h190.19v33.01h-75.02v234.83h-40.14V33.01Z"/><path class="d" d="m840.2,77.28h29.63l4.13,16.13c12-14.63,23.26-19.89,42.76-19.89,13.88,0,24.38,3.01,38.64,10.88l-16.51,31.88c-9.75-7.13-16.88-9.75-25.88-9.75-24.38,0-34.51,20.26-34.51,68.65v92.66h-38.26V77.28Z"/><path class="d" d="m1075.49,143.68c0-27.76-10.88-39.39-37.14-39.39-16.88,0-31.14,6.38-42.01,19.13l-26.26-19.51c16.88-20.63,39.76-30.38,72.02-30.38s53.64,10.13,64.15,30.01c5.63,10.5,7.5,22.88,7.5,46.52v117.79h-30.38l-2.62-12.38c-12,12-25.89,16.13-53.64,16.13-48.02,0-65.65-15.38-65.65-58.14s18.01-58.9,72.02-58.9h42.01v-10.88Zm-37.89,37.88c-28.88,0-39.76,8.63-39.76,31.13s9.75,28.89,38.64,28.89c18.01,0,28.51-3.38,34.51-11.25,3.38-4.88,4.5-10.13,4.5-24.01v-24.76h-37.89Z"/><path class="d" d="m1152.77,77.28h38.26v190.56h-38.26V77.28Z"/><path class="d" d="m1268.43,0v204.15c0,27.76,7.5,36.38,32.64,36.38h22.73l-17.93,31.14h-6.3c-55.52,0-69.4-14.26-69.4-71.28V0h38.26Z"/><path class="d" d="m652.45,305.08h69.26c52.52-.66,82.72,31.51,81.08,87.31v59.41c1.64,56.13-28.23,88.3-81.08,87.65h-69.26v-234.37Zm68.6,225.18c47.27.98,73.2-27.9,71.89-80.09v-55.81c1.31-52.19-24.62-81.08-71.89-80.09h-58.76v215.99h58.76Z"/><path class="d" d="m856.53,378.61h9.85v160.84h-9.85v-160.84Z"/><path class="d" d="m1027.06,510.89c-9.52,21.01-26.92,31.19-53.18,31.19-39.06,0-59.41-23.96-59.41-70.58v-24.95c0-46.61,20.02-70.58,59.74-70.58,26.59,0,43.66,10.17,53.51,31.51l.66-28.89h8.53v165.77c0,46.61-22.32,71.23-64.67,71.23-22.65,0-39.39-6.24-50.88-19.04l7.88-5.91c9.85,10.83,23.63,15.75,42.67,15.75,36.11,0,55.15-21.01,55.15-61.06v-34.47Zm-102.74-39.39c0,40.7,17.07,61.38,50.22,61.38,34.79,0,52.52-21.67,52.52-64.01v-19.7c0-42.34-17.73-64.01-52.52-64.01s-50.22,20.68-50.22,61.39v24.95Z"/><path class="d" d="m1089.62,378.61h9.85v160.84h-9.85v-160.84Z"/><path class="d" d="m1140.53,387.8v-9.19h21.01v-56.46h9.85v56.46h31.18v9.19h-31.18v114.89c0,20.68,6.57,27.91,26.59,27.57h6.89v9.19h-6.24c-27.9.33-37.09-8.86-37.09-37.09v-114.56h-21.01Z"/><path class="d" d="m1344.48,432.11c0-17.73-1.64-25.28-7.22-32.83-6.89-9.19-20.02-14.12-36.76-14.12-19.04,0-33.15,5.25-45.63,16.74l-6.57-6.24c11.49-12.47,30.2-19.69,52.19-19.69s37.42,6.57,45.96,19.37c5.91,8.86,7.88,17.73,7.88,37.09v107.01h-8.53l-1.31-13.78c-10.18,12.14-23.31,16.41-49.89,16.41-43.33,0-58.1-11.49-58.1-45.3s16.41-46.61,62.04-46.61h45.96v-18.05Zm-46.28,26.58c-37.09,0-51.54,10.5-51.54,37.75,0,14.77,3.61,23.3,12.15,29.54,6.89,4.92,17.07,6.89,36.76,6.89,23.31,0,36.11-3.94,43.33-13.46,4.27-5.58,5.58-11.82,5.58-25.6v-35.12h-46.28Z"/><path class="d" d="m1415.9,305.08v197.6c-.33,20.68,6.57,27.91,26.26,27.57h11.49v9.19h-11.49c-27.24,0-36.11-9.52-36.11-37.09v-197.28h9.85Z"/><polygon class="e" points="1350.8 271.67 1410.82 175.98 1470.84 271.67 1350.8 271.67"/></g></svg>