<?xml version="1.0" encoding="UTF-8"?><svg id="b" xmlns="http://www.w3.org/2000/svg" viewBox="0 0 2855.11 901.95"><defs><style>.d{stroke-dasharray:0 0 11.78 11.78;}.d,.e,.f,.g{fill:none;stroke:#00dbff;stroke-miterlimit:10;stroke-width:1.84px;}.f{stroke-dasharray:0 0 11.75 11.75;}.g{stroke-dasharray:0 0 11.81 11.81;}</style></defs><g id="c"><path class="e" d="m80.64.92c26.19,1.64,52.54,2.33,78.6,4.58,25.48,2.19,50.16,9.47,75.36,13.44,9.41,1.48,18.93,2.51,28.46,2.29,10.3-.24,20.5-1.94,30.77-2.67,48.44-3.43,85.71,21.23,130.88,32.3,17.55,4.3,35.76,5.33,53.38,9.32,60.14,13.63,108.57,60.37,149.96,103.67,7.26,7.59,14.37,15.39,22.62,21.9,17.81,14.05,40.4,21.45,63.06,22.52,8.01.38,16.19-.03,23.78-2.63,5.61-1.92,10.75-4.99,16.12-7.52,31.81-15,79.55-15.85,113.45-7.61,11.04,2.68,21.5,7.28,32.06,11.45,16.8,6.63,34,12.23,51.34,17.27,7.45,2.17,14.97,4.24,22.67,5.09,35.42,3.93,68.26-17.42,97.78-34.03,29.75-16.75,59.58-35.27,93.57-41.88,17.93-3.48,36.35-3.48,54.58-2.42,41.89,2.44,84.31,10.73,120.63,31.74,39.01,22.56,69.08,58.58,108.78,79.91,8.56,4.6,17.73,8.53,27.43,9.23,35.47,2.56,63.75-37.52,99.16-34.14,31.55,3.02,61.19-3.69,90.05-16.81,9.82-4.47,20.37-11.39,30.92-13.68,12.04-2.61,25.61-1.41,37.96-3.48,25.17-4.22,49.72-11.49,74.9-15.67,52.06-8.65,104.97-3.91,157.41-3.25,51.1.65,101.97-4.94,153.12-4.02,34.27.61,69.93,3.34,99.58,20.55,20.77,12.06,37.15,30.49,50.82,50.23,54.02,77.99,97.09,168.26,98.85,265.03.27,14.63,3.51,43.42,24.32,43.4,1.98,0,3.98-.34,5.78-1.17,2.16-1,3.93-2.68,5.55-4.43,18.34-19.85,16.93-47.64,47.49-55.47,16.74-4.29,34.43-1.2,51.26,2.72,14.54,3.39,29.06,7.44,42.34,14.26,31.85,16.35,53.9,47.05,83.83,66.69,61.22,40.18,146.25,28.68,215.03,21.24"/><path class="e" d="m77.27,25.48c1.96.02,3.93.04,5.89.06"/><path class="f" d="m94.91,25.76c72.47,1.78,144.75,10.94,215.37,27.3,11.76,2.73,23.51,5.66,34.81,9.93,14.09,5.32,27.37,12.69,41.67,17.44,15.82,5.26,32.71,7.26,47.98,13.94,15.28,6.68,29.42,19.85,30.43,36.49.33,5.42-.76,10.92.2,16.26,4.3,23.97,38.19,25.11,56.43,30.8,25.7,8.02,50.58,18.62,74.15,31.62,12.63,6.97,24.91,14.63,38.06,20.55,26.34,11.87,55.31,15.3,83.44,7.76,8.85-2.38,17.41-5.75,26.12-8.61,29.28-9.62,60.46-13.41,91.19-11.08,5.46.41,10.95,1.03,16.13,2.79,19.44,6.62,26.66,28.13,40.49,41.41,15.11,14.51,36.31,22.82,57.31,21.43,21.74-1.44,41.66-12.19,60.33-23.41,41.46-24.93,76.37-60.28,120.39-81.04,46.54-21.95,100.82-16.06,150.06-7.05,15.39,2.82,31.4,6.08,43.73,15.73,28.82,22.56,30.34,64.79,59.16,89,55.55,46.68,124.55,24.01,184.47-.38,31.45-12.8,62.74-27.11,95.94-34.87,37.22-8.71,74.76-4.29,112.51-2.08,15.48.91,31.39,1.77,46.16-2.96,8.64-2.77,16.68-7.39,25.59-9.12,26.68-5.19,55.1,16.41,80.09,5.73,6.22-2.66,11.47-7.11,17.3-10.53,14.49-8.5,31.82-10.3,48.54-11.91,48.62-4.68,97.97-.54,146.35-7.87,41.34-6.27,74.38,10.39,92.92,43.22,7.77,13.76,10.47,29.87,17.79,43.88,9.86,18.87,27.81,33.4,33.85,53.82,10.92,36.91,5.31,76.15-2.04,113.16-6.38,32.12-19.34,71.23-5.03,102.81,13.27,29.29,46.32,42.94,75.78,55.83,38.23,16.72,71.38,42.35,112.04,54.04,9.1,2.62,21.25,3.39,25.65-5,3.21-6.13.1-13.48-2.53-19.88-8.06-19.66-11.36-41.24-9.56-62.41.55-6.45,1.72-13.21,5.85-18.19,8.09-9.76,23.15-8.52,35.65-6.39,15.05,2.56,25.36,7.8,38.25,16.12,53.74,34.67,102.23,63.65,166,68.56,17.04,1.31,34.15,1.12,51.24.92,22.73-.26,45.45-.52,68.18-.77"/><path class="e" d="m2849.21,642.67c1.96-.02,3.93-.04,5.89-.07"/><path class="e" d="m71.71,44.98c1.96-.02,3.93-.03,5.89-.04"/><path class="g" d="m89.41,44.93c36.13.14,72.25,1.72,108.25,4.75,30.2,2.54,60.47,6.12,89.61,14.43,20.03,5.71,39.36,13.61,58.64,21.49,19.53,7.98,39.06,15.97,58.6,23.95,2.07.85,4.27,1.8,5.51,3.67,2.74,4.15-.93,9.61-4.98,12.51-8.66,6.21-19.63,8.46-28.48,14.4-8.85,5.94-15.14,18.66-8.69,27.14,12.7,16.72,61.38,13.09,81.02,16.57,31.05,5.5,61.85,13.73,90.12,27.97,17.99,9.06,34.78,20.44,53.16,28.66,57.63,25.75,124.26,17.93,186.16,5.62,18.14-3.61,36.96-7.55,54.93-3.16,4.34,1.06,8.73,2.71,11.78,5.96,4.82,5.15,5.16,13.33,2.55,19.88-2.61,6.55-7.64,11.81-12.75,16.67-20.31,19.3-45.47,38.08-49.32,65.83-5.12,36.84,30.77,36.6,56.57,27.93,14.66-4.93,27.77-13.53,40.69-22.03,23.29-15.33,46.57-30.66,69.86-45.98,37.22-24.5,76.23-46.15,113.27-70.92,33.92-22.69,60.76-45.88,102.85-51.64,28.11-3.85,56.66-1.85,84.96.15,22.85,1.62,47.4,3.91,64.83,18.77,29.52,25.17,26.31,75.53,56.34,100.09,10.42,8.53,23.68,12.77,36.86,15.55,31.15,6.55,63.81,5.78,94.61-2.24,19.2-5,37.57-12.73,55.85-20.43,49.28-20.76,89.29-42.44,144.06-44.93,18.02-.82,38.32.85,50.22,14.41,12.92,14.72,10.07,38.65-1.87,54.16-11.94,15.52-30.71,24.15-49.34,30.18s-38.07,10.13-55.39,19.28c-23.28,12.3-41.37,33.04-65.05,44.54-45.26,21.99-98.56,5.89-148.69,1.47-27.11-2.39-54.71-1.23-81.18-7.56-22.88-5.47-43.12-18.48-65.08-24.96-24.39-7.19-55.32-4.04-80.31-1.92-55.58,4.71-109.71,19.53-163.29,34.29-25.37,6.99-51.05,14.11-73.9,27.17-25.1,14.35-50.07,29.04-72.65,47.09-34.64,27.68-75.18,25.1-122.24,7.17-54.01-20.59-112.7-65.84-143.89-102.02-11.51-13.35-21.85-20.66-35.35-32-48.42-40.69-122.03-63.62-180.96-85.29-67.45-24.79-137.06-43.75-207.78-56.52-27.12-4.9-54.41-8.89-81.85-11.39-37.85-3.44-77.12-4.32-112.16-18.24"/><path class="e" d="m10.09,193.15c-1.79-.79-3.57-1.62-5.34-2.49"/><path class="e" d="m845.71,329.56c-.54,1.57-.75,3.26.25,4.4,2.13,2.42,8.14-.24,10.53-1.34,3.41-1.56,6.49-3.86,8.94-6.71,2.45-2.85,7.48-11.82.69-12.66-5.71-.7-10.99,3.15-14.64,7.11-1.79,1.94-3.39,4.12-4.58,6.49-.37.73-.85,1.7-1.19,2.7Z"/><path class="d" d="m.3,259.97c56.25,19.56,118.04,10.56,177.14,17.89,17.61,2.18,35,5.83,52.37,9.47,38.09,7.98,76,16.75,113.89,25.96,11.58,2.81,23.18,5.74,34.28,10.09,10.91,4.27,21.23,9.88,31.52,15.48,15.96,8.68,31.92,17.35,47.88,26.03,17.13,9.31,34.3,18.65,50.31,29.79,31.43,21.87,58.71,51.78,70.08,88.34,4.73,15.2,6.47,31.39,17.56,42.81,13.43,13.83,34.36,16.74,53.63,17.26,41.86,1.13,86.05-4.88,123.77,13.31,8.19,3.95,15.89,8.98,24.42,12.13,20.64,7.6,43.72,3.36,64.65-3.38,18.31-5.89,36.03-13.63,52.8-23.05,22.51-12.64,46.29-19.73,69.74-30.54,17.91-8.25,35.81-16.51,53.72-24.76,45.55-20.99,92.39-42.33,142.43-45.63,54.21-3.58,96.74,40.1,141.63,64.15,43.33,23.21,92.46,32.72,140.73,41.94,54.01,10.31,108.72,20.67,163.59,17.19,13.36-.85,27.13-2.67,38.59-9.58,9.13-5.51,16.22-13.92,25.34-19.44,16.66-10.08,39.78-10.49,51.38-26.13,12.62-17.02,3.98-41.78,11.06-61.75,7-19.74,29.03-31.31,49.97-31.13,20.94.18,40.68,10.01,57.72,22.18,17.05,12.17,32.22,26.83,49.45,38.72,50.01,34.51,114.63,34.1,161.01,74.23,7.19,6.22,13.93,13.16,18.51,21.5,5.72,10.43,7.74,22.42,10.08,34.08,11.31,56.26,34.67,102.28,66.29,149.4,28,41.72,78.68,61.3,126.48,68.99,51.02,8.22,103.5,5.85,154.01,16.79,61.74,13.37,119.53,46.4,182.68,47.94,18.94.46,37.84-1.95,56.79-2.35,29.9-.62,59.91,3.86,88.33,13.19"/><path class="e" d="m2729.79,830.72c-23.98-16.21-53.34-22.51-82.2-24.76-28.85-2.25-57.9-.78-86.75-3.1-41.62-3.35-82.34-14.53-123.99-17.55-12.88-.93-25.82-1.08-38.63-2.72-12.44-1.59-24.65-4.58-36.83-7.55-40.83-9.99-84.26-19-121.63-39-6.07-3.25-18.07-13.77-22.95-18.62-28.06-27.91-44.7-53.82-58.7-90.28-5.8-15.11-11.07-30.42-16.65-45.62-5.35-14.56-10.69-29.12-16.04-43.69-3.77-10.26-7.55-20.56-12.88-30.11-8.84-15.85-19.49-33.89-29.11-49.27-8.28-13.23-14.15-27.94-23.32-40.58-23.3-32.09-55.25-51.49-88.05-73.79-22.48-15.28-25.75-47.52-43.96-67.7-1.28-1.41-2.79-2.85-4.69-3.01-1.65-.15-3.21.71-4.65,1.53-8.48,4.86-10.67,6.4-19.41,10.77-18.86,9.43-41.86-3.12-62.46,1.37-14.6,3.18-26.01,14.49-35.09,26.35-9.08,11.87-16.89,24.99-28.4,34.52-16.73,13.86-38.78,18.16-59.83,20.33-21.09,2.17-44.78,10.09-63.67,20.07-23.28,12.3-41.37,33.04-65.05,44.54-45.26,21.99-98.56,5.89-148.69,1.47-27.11-2.39-54.71-1.23-81.18-7.56-22.88-5.47-43.12-18.48-65.07-24.96-24.39-7.19-55.32-4.04-80.31-1.92-55.58,4.71-109.71,19.53-163.29,34.29-25.37,6.99-51.05,14.11-73.9,27.17-28.64,16.37-50.14,41.99-79.92,57.02-21.76,10.98-46.55,17.12-70.68,13.66-21.3-3.06-40.81-13.28-59.83-23.35-12.77-6.76-25.55-13.52-38.32-20.28-17.27-9.14-34.71-18.36-50.05-30.58-13.87-11.05-25.73-25.83-38.18-38.63-12.3-12.64-23.66-26.26-37.16-37.6-48.42-40.69-122.03-63.63-180.96-85.29-67.45-24.79-137.06-43.75-207.78-56.52-27.12-4.9-54.41-8.89-81.85-11.39-41.79-3.8-85.3-4.48-122.95-23.02"/><path class="e" d="m2849,666.21c-74.84,3.05-151.98,2.34-221.53-25.46-26.3-10.51-51.08-24.78-73.38-42.25-7.17-5.62-14.27-11.67-22.83-14.77s-19.15-2.58-25.58,3.87c-7.27,7.29-6.85,19.03-5.58,29.24,2.25,18.15,5.86,36.71,15.87,52.02,6.15,9.4,14.71,17.63,17.66,28.47,5.18,19.03-13.07,40.37-32.68,38.19-13.55-1.51-20.32-10.33-30.12-17.94-11.29-8.76-25.78-12.99-38.83-18.88-30.72-13.87-60.59-29.62-89.39-47.14-20.38-12.39-40.43-25.84-56.58-43.39s-28.25-39.67-30.06-63.45c-2.69-35.54,7.49-65.28,9.11-100.88,1.04-22.95,1.6-36.33,2.77-59.27,1.16-22.81,1.41-48.31-14.05-65.12-5.69-6.19-9.92-10.32-13.96-17.7-3.17-5.79-6.35-11.59-9.52-17.38-4.65-8.49-9.31-16.99-13.22-25.85-5.31-12.03-10.13-25.72-21.67-32.02-18.89-10.3-45.53-11.69-66.61-7.35-21.07,4.35-41.47,12.03-62.83,14.6-22.32,2.68-45.54-1.77-67.62,2.41-9.12,1.73-18.11,5.68-24.25,12.64-2.89,3.28-5.08,7.14-6.67,11.21-8.45,21.65.95,46.85,16.54,64.1,15.56,17.23,36.39,27.21,54.11,41.57,18.11,14.67,30.43,35.21,41.86,55.17,13.58,23.7,26.73,47.64,39.89,71.58,3.33,6.06,5.11,13.16,7.35,19.7,6.61,19.29,14.78,37.93,20.37,57.61,5.79,20.39,11.72,40.3,20.47,60.27,7.91,18.08,17.42,36.24,29.01,52.21,3.06,4.22,6.22,8.37,9.89,12.08,11.1,11.23,19.42,22.3,32.31,31.42,36.96,26.11,88.84,34.76,134.06,36.63,15.89.66,29.81,5.88,45.71,5.32,12.2-.43,24.33-2.08,36.53-2.62,29.08-1.28,58.02,3.79,86.69,8.84,40.16,7.08,80.05,18.6,120.78,16.7,8-.37,16.08-1.18,23.97.21,6.11,1.08,11.9,3.46,17.79,5.4,23.12,7.63,48.11,8.71,70.85,17.42,1.5.57,3.1,1.28,3.86,2.69"/><path class="e" d="m2190.69,651.86c14.87,25.56,33.87,48.5,58.1,67.19,3.39,2.61,6.85,4.62,10.58,6.69,37.44,20.7,81.78,11.91,132.36,19.91,4.34.69,8.93-.08,12.95-1.84,4.02-1.77,7.43-5.67,7.26-10.06-.14-3.58-2.53-6.63-4.9-9.31-40.11-45.38-106.82-63.45-139.7-114.31-16.37-25.32-22.27-56.05-24.16-86.14-3.64-58.01,20.76-118.61,2.26-175.47-8.03-24.69-29.55-42.7-32.62-67.83-2.36-19.32-14.54-32.24-31.35-42.05-16.81-9.81-38.23-11.27-56.21-3.83-10.29,4.26-18.15,5.98-27.27,11.86-9.31,6.01-20.93,6.15-31.81,6.82-10.99.68-22.2,1.36-32.46,5.38-10.26,4.01-19.6,12-22.3,22.68-6.49,25.64,19.11,57.69,35.77,74.51,9.23,9.32,19.9,17.96,28.65,27.58,8.99,9.89,15.42,23.84,21.67,35.59,17.31,32.56,33.7,66.13,44.8,101.25,5.7,18.03,11.79,37.32,16.95,55.5,7.56,26.65,17.75,52.37,31.44,75.88Z"/><path class="e" d="m2142.1,485.49c-19.39-50.53-33.69-100.67-69.6-141.16-5.8-6.54-12.05-12.84-16.3-20.48-4.24-7.65-6.27-17.08-3.02-25.19,4.78-11.93,18.71-16.98,31.25-19.79,15.23-3.4,30.56-6.87,38.6-21.69,7.92-14.6,23.84-12.57,38.54-11.29,12.16,1.06,20.43,9.65,25.98,21.58,6.88,14.78.92,27.82,11.45,42.05,12.78,17.26,28.47,33.54,34.25,54.8,3.59,13.21,2.91,27.15,2.21,40.82-1.44,27.96-2.88,55.92-4.32,83.88-1.5,29.05-2.01,56.57,5.12,84.77,7.13,28.2,22.16,55.47,46.38,71.56,9.73,6.46,16.32,14.93,25.68,21.93,7.64,5.72,15.38,11.53,21.15,19.14,5.76,7.6,9.39,17.36,7.59,26.72-.62,3.21-1.92,6.39-4.27,8.66-2.42,2.33-5.72,3.51-8.99,4.28-10.48,2.46-21.22-.56-31.96-1.26-32.75-2.13-62.56-33.35-82.38-62.5-19.82-29.14-28.51-52.38-39.92-85.73-3.18-9.31-8.58-31.33-11.37-40.77-4.9-16.53-9.9-34.25-16.08-50.34Z"/><path class="e" d="m2290.31,713.65c3.41,1.03,7.28,1.79,10.4.08,4.46-2.44,5.15-8.64,4.06-13.61-3.16-14.38-15.62-24.43-26.2-34.66-7.08-6.84-13.62-14.25-19.59-22.08-30.67-40.23-45.72-92.06-41.39-142.47,2.94-34.12,1.48-68.6,1.57-102.85.03-9.91-.26-20.55-6.11-28.54-4.36-5.96-11.17-9.5-17.29-13.64-10.22-6.92-20.46-16.67-26.45-27.6-5.55-10.14-2.72-38.68-14.83-43.32-14.54-5.58-29.3,22.09-50.25,25.84-9.01,1.61-18.11,9.27-18.19,18.43-.04,4.34,2.24,8.32,4.42,12.08,35.64,61.48,64.66,123,79.47,194.94,2.78,13.51,6.28,26.84,9.77,40.18,8.09,30.88,21.75,65.65,41.68,90.27,17.46,21.57,41.3,38.65,68.92,46.97Z"/></g></svg>